<?xml version="1.0" encoding="utf-8"?>
<!-- Generator: Adobe Illustrator 17.0.2, SVG Export Plug-In . SVG Version: 6.00 Build 0)  -->
<!DOCTYPE svg PUBLIC "-//W3C//DTD SVG 1.1//EN" "http://www.w3.org/Graphics/SVG/1.1/DTD/svg11.dtd">
<svg version="1.1" id="Layer_1" xmlns="http://www.w3.org/2000/svg" xmlns:xlink="http://www.w3.org/1999/xlink" x="0px" y="0px"
	 width="32px" height="32px" viewBox="0 0 32 32" enable-background="new 0 0 32 32" xml:space="preserve">
<g>
	<path d="M10,31c-0.14,0-0.281-0.029-0.413-0.09C9.229,30.748,9,30.393,9,30V2c0-0.393,0.229-0.749,0.587-0.911
		C9.719,1.029,9.86,1,10,1c0.238,0,0.473,0.085,0.659,0.248l16,14C26.876,15.438,27,15.711,27,16s-0.124,0.562-0.342,0.752l-16,14
		C10.473,30.915,10.238,31,10,31z"/>
	<path d="M10,2l16,14L10,30V2 M10,0C9.72,0,9.438,0.059,9.174,0.179C8.459,0.503,8,1.215,8,2v28c0,0.785,0.459,1.497,1.174,1.821
		C9.438,31.941,9.72,32,10,32c0.476,0,0.946-0.17,1.317-0.495l16-14C27.751,17.125,28,16.577,28,16c0-0.577-0.249-1.125-0.683-1.505
		l-16-14C10.945,0.17,10.475,0,10,0L10,0z"/>
</g>
</svg>
