<?xml version="1.0" encoding="utf-8"?>
<!-- Generator: Adobe Illustrator 17.0.2, SVG Export Plug-In . SVG Version: 6.00 Build 0)  -->
<!DOCTYPE svg PUBLIC "-//W3C//DTD SVG 1.1//EN" "http://www.w3.org/Graphics/SVG/1.1/DTD/svg11.dtd">
<svg version="1.1" id="Layer_1" xmlns="http://www.w3.org/2000/svg" xmlns:xlink="http://www.w3.org/1999/xlink" x="0px" y="0px"
	 width="32px" height="32px" viewBox="0 0 32 32" enable-background="new 0 0 32 32" xml:space="preserve">
<g>
	<path d="M6,29c-0.552,0-1-0.447-1-1V4c0-0.552,0.448-1,1-1h6c0.552,0,1,0.448,1,1v24c0,0.553-0.448,1-1,1H6z"/>
	<path d="M12,4v24H6V4H12 M12,2H6C4.895,2,4,2.895,4,4v24c0,1.105,0.895,2,2,2h6c1.105,0,2-0.895,2-2V4C14,2.895,13.105,2,12,2L12,2
		z"/>
</g>
<g>
	<path d="M20,29c-0.553,0-1-0.447-1-1V4c0-0.552,0.447-1,1-1h6c0.553,0,1,0.448,1,1v24c0,0.553-0.447,1-1,1H20z"/>
	<path d="M26,4v24h-6V4H26 M26,2h-6c-1.105,0-2,0.895-2,2v24c0,1.105,0.895,2,2,2h6c1.105,0,2-0.895,2-2V4C28,2.895,27.105,2,26,2
		L26,2z"/>
</g>
</svg>
