<?xml version="1.0" encoding="utf-8"?>
<!-- Generator: Adobe Illustrator 17.0.2, SVG Export Plug-In . SVG Version: 6.00 Build 0)  -->
<!DOCTYPE svg PUBLIC "-//W3C//DTD SVG 1.1//EN" "http://www.w3.org/Graphics/SVG/1.1/DTD/svg11.dtd">
<svg version="1.1" id="Layer_1" xmlns="http://www.w3.org/2000/svg" xmlns:xlink="http://www.w3.org/1999/xlink" x="0px" y="0px"
	 width="32px" height="32px" viewBox="0.5 0.5 32 32" enable-background="new 0.5 0.5 32 32" xml:space="preserve">
<path d="M30.5,14.5h-28c-1.105,0-2,0.895-2,2l0,0c0,1.105,0.895,2,2,2h28c1.105,0,2-0.895,2-2l0,0
	C32.5,15.395,31.605,14.5,30.5,14.5L30.5,14.5z"/>
<path d="M30.5,4.5h-28c-1.105,0-2,0.895-2,2l0,0c0,1.105,0.895,2,2,2h28c1.105,0,2-0.895,2-2l0,0C32.5,5.395,31.605,4.5,30.5,4.5
	L30.5,4.5z"/>
<path d="M30.5,24.5h-28c-1.105,0-2,0.895-2,2l0,0c0,1.105,0.895,2,2,2h28c1.105,0,2-0.895,2-2l0,0
	C32.5,25.395,31.605,24.5,30.5,24.5L30.5,24.5z"/>
</svg>
