<?xml version="1.0" encoding="utf-8"?>
<!-- Generator: Adobe Illustrator 17.1.0, SVG Export Plug-In . SVG Version: 6.00 Build 0)  -->
<!DOCTYPE svg PUBLIC "-//W3C//DTD SVG 1.1//EN" "http://www.w3.org/Graphics/SVG/1.1/DTD/svg11.dtd">
<svg version="1.1" id="Layer_2" xmlns="http://www.w3.org/2000/svg" xmlns:xlink="http://www.w3.org/1999/xlink" x="0px" y="0px"
	 viewBox="0 0 64 64" enable-background="new 0 0 64 64" xml:space="preserve">
<path fill="#FFFFFF" d="M48.652,38.001V0.827C48.652,0.37,48.283,0,47.825,0h-12.89c-0.457,0-1.014,0.32-1.243,0.714L8.417,44.069
	C8.187,44.463,8,45.152,8,45.61v6.446c0,0.457,0.37,0.827,0.827,0.827h24.089c0.457,0,0.827,0.37,0.827,0.827v9.465
	c0,0.457,0.37,0.827,0.827,0.827h13.256c0.457,0,0.827-0.37,0.827-0.827v-9.465c0-0.457,0.37-0.827,0.827-0.827h5.018
	c0.456,0,0.827-0.37,0.827-0.827V39.654c0-0.457-0.37-0.827-0.827-0.827h-5.018C49.022,38.828,48.652,38.458,48.652,38.001z
	 M32.916,38.828h-5.429c-0.456,0-0.647-0.324-0.426-0.723l6.281-11.33c0.222-0.399,0.4-0.354,0.4,0.103v11.123
	C33.743,38.458,33.372,38.828,32.916,38.828z"/>
</svg>
