<?xml version="1.0" encoding="utf-8"?>
<!-- Generator: Adobe Illustrator 16.2.1, SVG Export Plug-In . SVG Version: 6.00 Build 0)  -->
<!DOCTYPE svg PUBLIC "-//W3C//DTD SVG 1.1//EN" "http://www.w3.org/Graphics/SVG/1.1/DTD/svg11.dtd">
<svg version="1.1" id="Layer_1" xmlns="http://www.w3.org/2000/svg" xmlns:xlink="http://www.w3.org/1999/xlink" x="0px" y="0px"
	 width="97.75px" height="64.348px" viewBox="0 0 97.75 64.348" enable-background="new 0 0 97.75 64.348" xml:space="preserve">
<g>
	<path fill="#FFFFFF" d="M95.75,55.003H2c-1.104,0-2,0.896-2,2v5.345c0,1.105,0.896,2,2,2h93.75c1.104,0,2-0.895,2-2v-5.345
		C97.75,55.898,96.854,55.003,95.75,55.003z M9.25,60.676H6.302v-2H9.25V60.676z M13.484,60.676h-2.948v-2h2.948V60.676z
		 M91.5,60.676H80.083v-2H91.5V60.676z"/>
	<path fill="#FFFFFF" d="M86.5,0H11.25c-2.762,0-5,2.238-5,5v47H91.5V5C91.5,2.238,89.262,0,86.5,0z M12.01,7.76
		c0-1.104,0.896-2,2-2h1.968L12.01,9.728V7.76z M12.01,12.556l6.796-6.796h4.529L12.01,17.085V12.556z M12.01,19.913L26.163,5.76
		h4.529L12.01,24.442V19.913z M12.01,27.271L33.521,5.76h4.529L12.01,31.8V27.271z M12.01,34.628L40.878,5.76h4.529L12.01,39.157
		V34.628z M12.01,44.24v-2.255L48.235,5.76h4.529L12.746,45.778C12.3,45.411,12.01,44.862,12.01,44.24z M15.112,46.24l40.48-40.48
		h4.529l-40.48,40.48H15.112z M22.47,46.24L62.95,5.76h4.529l-40.48,40.48H22.47z M29.827,46.24l40.48-40.48h4.529l-40.48,40.48
		H29.827z M37.185,46.24l40.48-40.48h4.529l-40.48,40.48H37.185z M85.74,44.24c0,1.104-0.896,2-2,2h-2.411l4.411-4.411V44.24z
		 M85.74,39.001l-7.239,7.239h-4.529L85.74,34.472V39.001z M85.74,31.644L71.144,46.24h-4.529L85.74,27.114V31.644z M85.74,24.286
		L63.786,46.24h-4.529L85.74,19.757V24.286z M85.74,16.929L56.429,46.24h-4.529L85.74,12.399V16.929z M85.74,9.571L49.071,46.24
		h-4.529L84.743,6.039c0.594,0.347,0.997,0.983,0.997,1.721V9.571z"/>
</g>
</svg>
