<?xml version="1.0" encoding="utf-8"?>
<!-- Generator: Adobe Illustrator 16.2.1, SVG Export Plug-In . SVG Version: 6.00 Build 0)  -->
<!DOCTYPE svg PUBLIC "-//W3C//DTD SVG 1.1//EN" "http://www.w3.org/Graphics/SVG/1.1/DTD/svg11.dtd">
<svg version="1.1" id="Layer_2" xmlns="http://www.w3.org/2000/svg" xmlns:xlink="http://www.w3.org/1999/xlink" x="0px" y="0px"
	 width="144px" height="144px" viewBox="0 0 144 144" enable-background="new 0 0 144 144" xml:space="preserve">
<g>
	<path d="M104.889,60.181c-0.01-1.129-0.35-1.249-1.326-1.424c-0.114-0.022-0.225-0.031-0.328-0.031c-0.396,0-1.593,0-2.389,3.897
		l3.658,0.688C104.787,61.846,104.895,60.955,104.889,60.181z"/>
	<path d="M96.705,85.4c-0.432,0-0.763,0.248-1.294,0.772c-0.024,0.026-0.059,0.114-0.061,0.148v9.157
		c0,2.626,0.642,2.842,1.356,2.842c1.596,0,2.405-2.248,2.405-6.68C99.112,87.208,98.412,85.4,96.705,85.4z"/>
	<path d="M77.111,77.863l0.205,0.005c2.448,0,3.992-0.972,4.023-2.538c0.033-1.753-1.594-2.162-2.959-2.196
		c-0.311-0.009-1.008,0.009-1.646,0.027l-0.504,0.011c-0.516,0.014-0.91,0.027-1.236,0.014c-0.775-0.018-1.336-0.057-2.231-0.229
		h-0.009c-0.041,0-0.088,0.014-0.104,0.022c-0.376,0.345-0.536,0.747-0.549,1.42C72.063,76.422,74.027,77.78,77.111,77.863z"/>
	<path d="M76.471,63.254c0.945,0,1.736-0.263,1.809-3.472c0.045-1.911-0.211-3.17-0.767-3.749c-0.279-0.291-0.657-0.439-1.161-0.45
		c-0.877,0-1.744,0.27-1.818,3.431c-0.045,2.009,0.189,3.213,0.742,3.792C75.551,63.097,75.941,63.243,76.471,63.254z"/>
	<path d="M140.056,0H3.944C1.769,0,0,1.766,0,3.944v136.109C0,142.231,1.769,144,3.944,144h136.109c2.178,0,3.946-1.769,3.946-3.944
		V3.944C144,1.766,142.231,0,140.056,0z M85.734,49.226c2.569-0.297,5.812-0.837,7.713-1.283c0.264-0.059,0.533,0.021,0.699,0.205
		c0.135,0.146,0.201,0.346,0.185,0.56l-1.796,19.003c-0.278,3.015-0.023,3.058,1.197,3.26c0.45,0.079,0.736,0.389,0.697,0.754
		c-0.026,0.337-0.348,0.585-0.765,0.585l-0.076-0.002l-6.888-0.652c-0.375-0.029-0.722-0.342-0.797-0.727l-0.056-0.239
		c-0.047-0.185-0.087-0.508-0.061-0.754l1.474-15.522c0.164-1.755,0.112-2.392-0.24-2.952c-0.275-0.479-0.617-0.693-1.318-0.812
		c-0.422-0.072-0.711-0.367-0.711-0.711C84.989,49.577,85.302,49.277,85.734,49.226z M68.841,59.4
		c0.039-1.847,1.287-3.521,3.432-4.599c1.146-0.596,2.14-0.846,3.735-0.934l0.002-0.094c0.074-3.225,1.777-5.308,4.338-5.308h0.107
		c0.892,0.022,1.711,0.351,2.311,0.929c0.613,0.59,0.937,1.382,0.916,2.228c-0.038,1.591-1.234,2.835-2.73,2.835
		c-0.857-0.022-1.497-0.351-2.215-1.136c-0.58-0.637-0.68-0.666-0.828-0.67c-0.152,0-0.473,0-0.537,1.224l0.162,0.004
		c1.372,0.072,3.06,0.715,4.4,1.679c1.328,0.995,2.07,2.394,2.039,3.847c-0.059,3.137-3.33,5.594-7.443,5.594l-0.274-0.004
		c-1.249-0.034-2.216-0.218-3.447-0.664c-0.351,0.32-0.418,0.495-0.423,0.738c-0.018,0.81,0.2,1.438,3.096,1.514
		c0.488,0.02,1.184-0.004,2.072-0.049h0.095c0.754-0.016,1.513-0.027,2.024-0.018c3.596,0.097,6.156,2.567,6.092,5.877
		c-0.079,4.194-4.377,7.354-9.995,7.354c-0.132,0-0.265-0.002-0.396-0.006c-4.557-0.119-7.355-1.737-7.306-4.221
		c0.025-1.283,0.875-2.396,2.473-3.241c-1.667-0.808-2.52-2.11-2.488-3.802c0.041-1.886,1.048-3.442,3.166-4.871
		C69.622,62.663,68.805,61.218,68.841,59.4z M40.423,48.487c2.178-0.231,3.983,1.29,4.214,3.432c0.104,0.99-0.193,1.969-0.837,2.754
		c-0.641,0.79-1.543,1.282-2.542,1.386c-0.135,0.016-0.272,0.022-0.405,0.022c-1.959,0-3.591-1.471-3.802-3.42
		C36.83,50.58,38.345,48.708,40.423,48.487z M36.619,58.945c2.448-0.853,5.513-2.104,7.283-2.981
		c0.432-0.211,0.972,0.085,1.024,0.564l1.226,11.577c0.295,2.808,0.549,2.808,1.487,2.808c0.182,0,0.383-0.009,0.605-0.024
		c1.744-0.178,1.969-0.2,1.784-3.26l-0.297-5.079c-0.106-1.779-0.254-2.407-0.693-2.914c-0.333-0.4-0.713-0.562-1.406-0.599
		c-0.312-0.013-0.711-0.164-0.805-0.54c-0.102-0.353,0.155-0.72,0.596-0.846c2.378-0.684,4.529-1.451,7.42-2.653
		c0.088-0.041,0.185-0.056,0.281-0.056c0.376,0,0.688,0.297,0.709,0.679l0.085,1.442c1.669-1.714,3.105-2.439,4.993-2.551
		c1.586-0.095,2.936,0.391,3.663,1.303c0.625,0.718,0.904,1.658,1.015,3.462l0.472,8.019c0.113,2.36,0.311,2.374,1.267,2.432
		c0.425,0.032,0.77,0.374,0.781,0.781c0.009,0.207-0.068,0.407-0.211,0.556c-0.149,0.153-0.36,0.245-0.576,0.248l-0.632,0.009
		c-2.488,0.029-5.015,0.112-7.513,0.248c0,0,0,0-0.002,0c-0.486,0-0.814-0.248-0.839-0.614c-0.022-0.344,0.245-0.632,0.675-0.733
		c0.396-0.099,0.477-0.25,0.536-0.425c0.104-0.32,0.119-0.569,0.024-2.111l-0.346-5.852c-0.137-2.423-0.232-2.905-0.477-3.31
		c-0.142-0.261-0.52-0.453-0.882-0.453l-0.072,0.002c-0.515,0.029-1.127,0.558-1.712,1.127c-0.013,0.018-0.041,0.085-0.041,0.112
		l0.522,8.545c0.11,2.36,0.313,2.385,0.862,2.453c0.43,0.054,0.725,0.306,0.75,0.646c0.011,0.155-0.041,0.313-0.151,0.443
		c-0.142,0.158-0.362,0.257-0.612,0.272c-10.146,0.639-17.356,1.953-18.698,2.209c-0.059,0.012-0.124,0.021-0.198,0.021
		c-0.45,0-0.682-0.29-0.709-0.562c-0.038-0.36,0.232-0.663,0.675-0.756c1.255-0.256,1.537-0.662,1.206-3.798l-0.535-5.056
		c-0.189-1.75-0.369-2.37-0.835-2.889c-0.344-0.376-0.736-0.518-1.447-0.518c-0.43,0-0.765-0.22-0.834-0.551
		C35.964,59.429,36.205,59.089,36.619,58.945z M32.312,76.138c-1.573,0.485-4.03,0.896-6.744,1.128
		c-0.85,0.076-1.17,0.111-1.419,0.186c-0.376,0.119-0.39,0.21-0.401,0.297c-0.063,0.522-0.312,0.703-0.508,0.764l-0.153,0.024
		h-0.018c-0.306,0-0.583-0.229-0.698-0.583l-2.925-8.502c-0.083-0.245-0.072-0.481,0.025-0.673c0.076-0.15,0.205-0.259,0.357-0.306
		l0.151-0.025c0,0,0.002,0,0.004,0c0.407,0,0.662,0.322,0.729,0.423c1.269,1.816,3.015,3.416,5.193,4.759
		c1.24,0.776,2.32,1.139,3.4,1.139c0.853,0,1.686-0.221,2.387-0.441c0.929-0.285,1.573-0.666,1.913-1.136
		c0.337-0.466,0.392-1.044,0.169-1.769c-0.45-1.465-1.897-2.153-5-2.376l-3.249-0.232c-4.464-0.353-6.709-1.613-7.513-4.216
		c-1.22-3.96,1.381-8.03,6.048-9.468c1.267-0.392,2.304-0.546,4.829-0.729c0.697-0.041,1.084-0.122,1.285-0.185
		c0.115-0.036,0.146-0.056,0.153-0.063c-0.002,0,0.002-0.018,0.004-0.065c0.05-0.567,0.338-0.736,0.504-0.788l0.135-0.025
		c0.002,0,0.004,0,0.007,0c0.335,0,0.607,0.228,0.729,0.574l2.401,6.716c0.083,0.241,0.076,0.486-0.021,0.675
		c-0.072,0.146-0.205,0.258-0.36,0.306l-0.146,0.025c0,0-0.002,0-0.004,0c-0.396,0-0.657-0.306-0.727-0.4
		c-2.079-2.808-4.552-4.354-6.957-4.354c-0.551,0-1.1,0.081-1.623,0.243c-1.739,0.536-2.335,1.359-1.93,2.664
		c0.227,0.74,0.758,1.332,1.417,1.58c0.781,0.322,2.34,0.594,4.077,0.711l3.071,0.187c3.976,0.288,6.221,1.712,7.081,4.48
		c0.599,1.937,0.34,3.973-0.722,5.726C36.205,74.16,34.447,75.48,32.312,76.138z M56.385,99.112c-0.011,0.45-0.297,0.79-0.67,0.79
		c-0.434,0-0.623-0.426-0.695-0.585c-0.02-0.048-0.027-0.063-0.139-0.063c-0.277,0-0.943,0.117-2.97,0.518
		c-0.711,0.121-2.165,0.259-3.049,0.259c-6.786,0-12.103-4.987-12.103-11.36c0-6.266,5.128-11.176,11.668-11.176
		c1.177,0,2.745,0.207,4.302,0.57c0.882,0.206,1.231,0.268,1.56,0.268c0.173,0,0.187-0.021,0.216-0.072
		c0.135-0.223,0.355-0.52,0.711-0.52c0.367,0,0.653,0.326,0.68,0.773l0.459,7.656c0.014,0.264-0.059,0.488-0.207,0.642
		c-0.11,0.122-0.266,0.194-0.437,0.194c-0.38,0-0.632-0.34-0.729-0.629c-0.652-1.988-1.487-3.543-2.705-5.051
		c-1.271-1.574-2.509-1.896-3.98-1.896c-2.705,0-4.019,3.082-4.019,9.426c0,3.705,0.529,6.164,1.712,7.971
		c0.574,0.855,1.523,1.24,3.08,1.24c1.422,0,2.655-0.432,4.043-2.541c0.995-1.48,1.616-2.882,2.151-4.84
		c0.087-0.328,0.344-0.66,0.72-0.66c0.162,0,0.315,0.064,0.435,0.186c0.144,0.146,0.225,0.377,0.218,0.631L56.385,99.112z
		 M67.693,99.592h-9.448c-0.468,0-0.808-0.279-0.808-0.662c0-0.361,0.326-0.647,0.776-0.679c1.287-0.091,1.521-0.106,1.521-3.14
		V82.368c0-1.767-0.11-2.392-0.515-2.919c-0.315-0.454-0.677-0.632-1.384-0.688c-0.428-0.032-0.75-0.297-0.781-0.648
		c-0.032-0.352,0.248-0.678,0.668-0.773c2.507-0.529,5.688-1.369,7.562-1.998c0.468-0.158,0.949,0.197,0.949,0.682v19.082
		c0,3.028,0.259,3.049,1.499,3.139c0.443,0.031,0.768,0.314,0.768,0.68C68.503,99.312,68.164,99.592,67.693,99.592z M87.324,97.837
		c-1.293,0.236-2.25,0.506-3.463,0.891l-3.624,1.149c-0.072,0.025-0.151,0.039-0.228,0.039c-0.394,0-0.713-0.326-0.713-0.727v-1.488
		c-0.549,0.473-0.877,0.711-1.26,0.969c-1.285,0.854-2.75,1.322-4.125,1.322c-1.348,0-2.715-0.616-3.411-1.532
		c-0.583-0.796-0.788-1.719-0.788-3.53v-6.916c0-2.824-0.409-3.009-1.602-3.131c-0.452-0.047-0.753-0.323-0.753-0.684
		c0-0.371,0.328-0.65,0.781-0.67c1.62-0.068,4.982-0.443,7.191-0.801l0.11-0.012h0.002c0.443,0,0.774,0.333,0.774,0.76v10.927
		c0,0.997,0.072,1.472,0.274,1.825c0.161,0.306,0.616,0.521,1.079,0.521c0.545,0,1.047-0.25,1.677-0.837
		c0.019-0.021,0.05-0.104,0.052-0.136v-7.764c0-2.824-0.412-3.009-1.606-3.131c-0.443-0.047-0.751-0.328-0.751-0.684
		c0-0.371,0.328-0.65,0.78-0.67c1.62-0.068,4.983-0.443,7.198-0.801l0.105-0.012h0.002c0.443,0,0.773,0.333,0.773,0.76v9.966
		c0,2.486,0.439,2.808,1.516,2.995c0.427,0.074,0.713,0.355,0.713,0.697C88.029,97.468,87.738,97.758,87.324,97.837z M96.797,99.992
		c-1.595,0-2.15-0.121-4.973-1.08c-0.515-0.185-0.578-0.191-0.767-0.191c-0.372,0-0.624,0.108-0.831,0.66
		c-0.107,0.294-0.353,0.611-0.719,0.611c-0.377,0-0.662-0.344-0.662-0.803V82.373c0-1.76-0.112-2.388-0.518-2.919
		c-0.312-0.448-0.68-0.632-1.356-0.688c-0.343-0.027-0.716-0.223-0.783-0.604c-0.069-0.366,0.21-0.717,0.647-0.816
		c2.521-0.528,5.84-1.401,7.561-1.993c0.49-0.157,0.951,0.196,0.951,0.68v7.974c1.285-0.897,2.604-1.336,4.023-1.336
		c3.799,0,6.553,3.275,6.553,7.791C105.926,95.895,102.002,99.992,96.797,99.992z M107.519,72.135
		c-1.431,1.217-3.208,1.861-5.142,1.861c-0.521,0-1.055-0.048-1.586-0.143c-4.878-0.877-7.913-5.111-7.062-9.85
		c0.763-4.232,4.432-7.303,8.725-7.303c0.55,0,1.105,0.049,1.647,0.148c2.653,0.475,4.811,2.018,5.923,4.232
		c0.674,1.341,0.881,2.439,0.791,4.196l-0.016,0.261c-0.024,0.392-0.349,0.686-0.756,0.686c-0.043,0-0.092-0.004-0.142-0.013
		l-9.304-1.656c-0.232,2.889,0.97,4.475,3.775,4.979c1.959,0.353,3.229-0.039,4.678-1.438c0.288-0.279,0.709-0.36,0.977-0.178
		c0.299,0.209,0.352,0.637,0.121,1.019C109.235,70.438,108.596,71.217,107.519,72.135z M120.132,65.524l1.845,1.224
		c3.061,2.059,4.131,4.023,3.47,6.373c-0.735,2.63-3.106,4.264-6.188,4.264c-0.844,0-1.71-0.122-2.583-0.369
		c-1.498-0.421-3.838-1.701-6.104-3.342c-0.297-0.216-0.453-0.63-0.371-0.988l1.234-5.446c0.09-0.387,0.367-0.646,0.688-0.646
		l0.122,0.014c0.38,0.105,0.551,0.472,0.594,0.76c0.648,4.376,2.36,7.264,4.707,7.92c1.305,0.367,2.007,0.183,2.243-0.664
		c0.218-0.794,0.226-1.519-1.847-2.985l-1.314-0.949c-3.598-2.572-4.788-4.606-4.106-7.027c0.659-2.352,2.896-3.816,5.839-3.816
		c0.844,0,1.71,0.124,2.58,0.371c1.566,0.438,3.081,1.129,4.917,2.248c0.326,0.198,0.501,0.614,0.419,0.988l-0.95,4.396
		c-0.079,0.389-0.355,0.65-0.682,0.65l-0.128-0.016c-0.374-0.097-0.545-0.468-0.586-0.761c-0.427-2.929-1.855-5.22-3.559-5.699
		c-0.328-0.09-0.648-0.137-0.93-0.137c-0.644,0-1.02,0.225-1.152,0.691C118.021,63.54,118.625,64.503,120.132,65.524z"/>
</g>
</svg>
