<?xml version="1.0" encoding="utf-8"?>
<!-- Generator: Adobe Illustrator 17.1.0, SVG Export Plug-In . SVG Version: 6.00 Build 0)  -->
<!DOCTYPE svg PUBLIC "-//W3C//DTD SVG 1.1//EN" "http://www.w3.org/Graphics/SVG/1.1/DTD/svg11.dtd">
<svg version="1.1" id="Layer_2" xmlns="http://www.w3.org/2000/svg" xmlns:xlink="http://www.w3.org/1999/xlink" x="0px" y="0px"
	 viewBox="-16 0 96 64" enable-background="new -16 0 96 64" xml:space="preserve">
<g>
	<path fill="#FFFFFF" d="M78.037,54.421h-92.074c-1.083,0-1.964,0.881-1.964,1.964v5.25c0,1.085,0.881,1.964,1.964,1.964h92.073
		c1.085,0,1.964-0.879,1.964-1.964v-5.25C80.001,55.3,79.12,54.421,78.037,54.421z M-6.916,59.992h-2.895v-1.964h2.895V59.992z
		 M-2.758,59.992h-2.895v-1.964h2.895V59.992z M73.863,59.992H62.65v-1.964h11.213V59.992z"/>
	<path fill="#FFFFFF" d="M68.952,0.402H-4.951c-2.712,0-4.911,2.198-4.911,4.911v46.159h83.725V5.312
		C73.863,2.6,71.665,0.402,68.952,0.402z M-4.206,8.022c0-1.085,0.881-1.964,1.964-1.964h1.934l-3.897,3.897
		C-4.206,9.956-4.206,8.022-4.206,8.022z M-4.206,12.732l6.675-6.675h4.448L-4.206,17.18V12.732z M-4.206,19.958L9.693,6.059h4.448
		L-4.206,24.407V19.958z M-4.206,27.185L16.921,6.059h4.448L-4.206,31.632V27.185z M-4.206,34.411L24.146,6.059h4.448l-32.8,32.8
		V34.411z M-4.206,43.85v-2.214L31.372,6.059h4.448L-3.483,45.361C-3.921,45.001-4.206,44.461-4.206,43.85z M-1.159,45.814
		L38.597,6.057h4.448L3.29,45.814H-1.159z M6.068,45.814L45.824,6.057h4.448L10.515,45.814H6.068z M13.293,45.814L53.05,6.057h4.448
		L17.741,45.814H13.293z M20.519,45.814L60.276,6.059h4.448L24.967,45.814H20.519z M68.206,43.85c0,1.085-0.881,1.964-1.964,1.964
		h-2.369l4.332-4.332C68.206,41.482,68.206,43.85,68.206,43.85z M68.206,38.705l-7.11,7.11h-4.448l11.558-11.558V38.705z
		 M68.206,31.479L53.872,45.814h-4.448L68.208,27.03v4.449H68.206z M68.206,24.252L46.645,45.814h-4.448l26.009-26.009V24.252z
		 M68.206,17.028L39.419,45.814h-4.448l33.235-33.236V17.028z M68.206,9.801L32.192,45.814h-4.448L67.227,6.332
		c0.584,0.341,0.98,0.966,0.98,1.691C68.206,8.022,68.206,9.801,68.206,9.801z"/>
</g>
</svg>
