<?xml version="1.0" encoding="utf-8"?>
<!-- Generator: Adobe Illustrator 16.2.1, SVG Export Plug-In . SVG Version: 6.00 Build 0)  -->
<!DOCTYPE svg PUBLIC "-//W3C//DTD SVG 1.1//EN" "http://www.w3.org/Graphics/SVG/1.1/DTD/svg11.dtd">
<svg version="1.1" id="Layer_2" xmlns="http://www.w3.org/2000/svg" xmlns:xlink="http://www.w3.org/1999/xlink" x="0px" y="0px"
	 width="144px" height="144px" viewBox="0 0 144 144" enable-background="new 0 0 144 144" xml:space="preserve">
<g>
	<g>
		<g>
			<path d="M72,134.986C37.271,134.986,9.016,106.73,9.016,72C9.016,37.269,37.271,9.016,72,9.016
				c34.729,0,62.984,28.256,62.984,62.987C134.984,106.734,106.729,134.986,72,134.986z M72,12.593
				c-32.755,0-59.407,26.651-59.407,59.407S39.242,131.409,72,131.409s59.406-26.649,59.406-59.407
				C131.406,39.245,104.758,12.593,72,12.593z"/>
		</g>
		<g>
			<path d="M72,125.971c-29.758,0-53.966-24.21-53.966-53.968c0-29.759,24.208-53.969,53.966-53.969s53.967,24.21,53.967,53.969
				C125.967,101.761,101.758,125.971,72,125.971z M72,21.611c-27.785,0-50.389,22.605-50.389,50.391
				c0,27.785,22.604,50.391,50.389,50.391s50.389-22.605,50.389-50.391S99.785,21.611,72,21.611z"/>
		</g>
		<g>
			<path d="M72,116.955c-24.786,0-44.951-20.164-44.951-44.953S47.214,27.049,72,27.049s44.951,20.165,44.951,44.953
				S96.788,116.955,72,116.955z M72,30.627c-22.812,0-41.373,18.561-41.373,41.375c0,22.814,18.561,41.375,41.373,41.375
				c22.812,0,41.373-18.561,41.373-41.375C113.373,49.187,94.812,30.627,72,30.627z"/>
		</g>
		<g>
			<path d="M72,144.004c-39.701,0-72-32.301-72-72.001C0,32.301,32.299,0,72,0s72,32.301,72,72.002S111.701,144.004,72,144.004z
				 M72,3.578c-37.728,0-68.422,30.694-68.422,68.425c0,37.729,30.694,68.422,68.422,68.422c37.729,0,68.422-30.694,68.422-68.425
				C140.422,34.269,109.729,3.578,72,3.578z"/>
		</g>
	</g>
	<g>
		<path d="M72,37.854c-18.859,0-34.146,15.291-34.146,34.148c0,18.857,15.287,34.146,34.146,34.146
			c18.857,0,34.146-15.291,34.146-34.148C106.146,53.143,90.857,37.854,72,37.854z M72,87.779c-8.714,0-15.777-7.064-15.777-15.777
			S63.286,56.225,72,56.225c8.715,0,15.775,7.065,15.775,15.777S80.715,87.779,72,87.779z"/>
	</g>
</g>
</svg>
