<?xml version="1.0" encoding="utf-8"?>
<!-- Generator: Adobe Illustrator 16.2.1, SVG Export Plug-In . SVG Version: 6.00 Build 0)  -->
<!DOCTYPE svg PUBLIC "-//W3C//DTD SVG 1.1//EN" "http://www.w3.org/Graphics/SVG/1.1/DTD/svg11.dtd">
<svg version="1.1" id="Layer_2" xmlns="http://www.w3.org/2000/svg" xmlns:xlink="http://www.w3.org/1999/xlink" x="0px" y="0px"
	 width="144px" height="144px" viewBox="0 0 144 144" enable-background="new 0 0 144 144" xml:space="preserve">
<path d="M109.467,85.502V1.861c0-1.028-0.83-1.861-1.86-1.861H78.604c-1.027,0-2.281,0.72-2.797,1.606L18.938,99.155
	c-0.518,0.887-0.938,2.437-0.938,3.468v14.503c0,1.028,0.833,1.86,1.861,1.86h54.2c1.029,0,1.861,0.833,1.861,1.861v21.296
	c0,1.028,0.832,1.86,1.861,1.86h29.825c1.028,0,1.86-0.832,1.86-1.86v-21.296c0-1.028,0.833-1.861,1.861-1.861h11.291
	c1.025,0,1.86-0.832,1.86-1.86V89.222c0-1.028-0.833-1.86-1.86-1.86H111.33C110.299,87.363,109.467,86.53,109.467,85.502z
	 M74.061,87.363H61.846c-1.026,0-1.456-0.729-0.958-1.627L75.02,60.244c0.5-0.897,0.9-0.796,0.9,0.232v25.026
	C75.922,86.53,75.087,87.363,74.061,87.363z"/>
</svg>
