<?xml version="1.0" encoding="utf-8"?>
<!-- Generator: Adobe Illustrator 16.2.1, SVG Export Plug-In . SVG Version: 6.00 Build 0)  -->
<!DOCTYPE svg PUBLIC "-//W3C//DTD SVG 1.1//EN" "http://www.w3.org/Graphics/SVG/1.1/DTD/svg11.dtd">
<svg version="1.1" id="Layer_2" xmlns="http://www.w3.org/2000/svg" xmlns:xlink="http://www.w3.org/1999/xlink" x="0px" y="0px"
	 width="144.001px" height="94.795px" viewBox="-16.002 24.603 144.001 94.795"
	 enable-background="new -16.002 24.603 144.001 94.795" xml:space="preserve">
<g>
	<path d="M125.057,105.631H-13.056c-1.625,0-2.946,1.322-2.946,2.947v7.875c0,1.627,1.321,2.945,2.946,2.945h138.111
		c1.627,0,2.944-1.318,2.944-2.945v-7.875C128.002,106.95,126.68,105.631,125.057,105.631z M-2.374,113.988h-4.342v-2.946h4.342
		V113.988z M3.863,113.988h-4.342v-2.946h4.342V113.988z M118.795,113.988h-16.82v-2.946h16.82V113.988z"/>
	<path d="M111.428,24.603H0.574c-4.068,0-7.367,3.297-7.367,7.367v69.238h125.588v-69.24
		C118.795,27.9,115.498,24.603,111.428,24.603z M1.691,36.033c0-1.628,1.322-2.946,2.946-2.946h2.901l-5.846,5.846
		C1.691,38.934,1.691,36.033,1.691,36.033z M1.691,43.098l10.013-10.013h6.672L1.691,49.77V43.098z M1.691,53.937L22.54,33.088
		h6.672L1.691,60.61V53.937z M1.691,64.777l31.69-31.689h6.672L1.691,71.448V64.777z M1.691,75.617l42.528-42.529h6.672
		l-49.2,49.201V75.617L1.691,75.617z M1.691,89.775v-3.321l53.367-53.366h6.672L2.775,92.041
		C2.119,91.502,1.691,90.691,1.691,89.775z M6.262,92.721l59.634-59.635h6.672L12.935,92.721H6.262z M17.102,92.721l59.634-59.635
		h6.672L23.772,92.721H17.102z M27.939,92.721l59.636-59.635h6.672L34.611,92.721H27.939z M38.778,92.721l59.636-59.632h6.672
		L45.451,92.721H38.778z M110.309,89.775c0,1.627-1.32,2.945-2.945,2.945h-3.553l6.498-6.498V89.775z M110.309,82.059L99.645,92.723
		h-6.672l17.336-17.337V82.059z M110.309,71.219l-21.5,21.502h-6.672l28.176-28.176v6.674H110.309z M110.309,60.378L77.967,92.721
		h-6.671l39.013-39.013V60.378z M110.309,49.542l-43.18,43.179h-6.672l49.852-49.854V49.542z M110.309,38.702L56.288,92.721h-6.672
		l59.224-59.223c0.877,0.511,1.471,1.449,1.471,2.537C110.309,36.033,110.309,38.702,110.309,38.702z"/>
</g>
</svg>
