<svg version="1.1" id="Layer_2" xmlns="http://www.w3.org/2000/svg" xmlns:xlink="http://www.w3.org/1999/xlink" x="0px" y="0px"
	 viewBox="0 0 64 64" enable-background="new 0 0 64 64" xml:space="preserve">
<g>
	<g>
		<g>
			<path fill="#FFFFFF" d="M32,59.994c-15.435,0-27.993-12.558-27.993-27.994S16.565,4.007,32,4.007s27.993,12.558,27.993,27.994
				S47.435,59.994,32,59.994z M32,5.597c-14.558,0-26.403,11.845-26.403,26.403S17.441,58.404,32,58.404S58.403,46.56,58.403,32.001
				S46.559,5.597,32,5.597z"/>
		</g>
		<g>
			<path fill="#FFFFFF" d="M32,55.987c-13.226,0-23.985-10.76-23.985-23.986S18.774,8.015,32,8.015
				c13.226,0,23.985,10.76,23.985,23.986S45.226,55.987,32,55.987z M32,9.605c-12.349,0-22.395,10.047-22.395,22.396
				S19.651,54.397,32,54.397S54.395,44.35,54.395,32.001S44.349,9.605,32,9.605z"/>
		</g>
		<g>
			<path fill="#FFFFFF" d="M32,51.98c-11.016,0-19.978-8.962-19.978-19.979S20.984,12.022,32,12.022s19.978,8.962,19.978,19.979
				S43.017,51.98,32,51.98z M32,13.612c-10.139,0-18.388,8.249-18.388,18.389S21.861,50.39,32,50.39s18.388-8.249,18.388-18.389
				S42.139,13.612,32,13.612z"/>
		</g>
		<g>
			<path fill="#FFFFFF" d="M32,64.002c-17.645,0-32-14.356-32-32.001S14.355,0,32,0s32,14.356,32,32.001S49.645,64.002,32,64.002z
				 M32,1.59c-16.768,0-30.41,13.642-30.41,30.411S15.232,62.411,32,62.411c16.768,0,30.41-13.642,30.41-30.411S48.768,1.59,32,1.59
				z"/>
		</g>
	</g>
	<g>
		<path fill="#FFFFFF" d="M32,16.824c-8.382,0-15.176,6.796-15.176,15.177S23.618,47.177,32,47.177
			c8.381,0,15.176-6.796,15.176-15.177S40.381,16.824,32,16.824z M32,39.013c-3.873,0-7.012-3.14-7.012-7.012
			s3.139-7.012,7.012-7.012s7.011,3.14,7.011,7.012S35.873,39.013,32,39.013z"/>
	</g>
</g>
</svg>
