<?xml version="1.0" encoding="utf-8"?>
<!-- Generator: Adobe Illustrator 17.1.0, SVG Export Plug-In . SVG Version: 6.00 Build 0)  -->
<!DOCTYPE svg PUBLIC "-//W3C//DTD SVG 1.1//EN" "http://www.w3.org/Graphics/SVG/1.1/DTD/svg11.dtd">
<svg version="1.1" id="Layer_2" xmlns="http://www.w3.org/2000/svg" xmlns:xlink="http://www.w3.org/1999/xlink" x="0px" y="0px"
	 viewBox="0 0 64 64" enable-background="new 0 0 64 64" xml:space="preserve">
<g>
	<path fill="#FFFFFF" d="M46.617,26.747c-0.004-0.502-0.155-0.555-0.589-0.633c-0.051-0.01-0.1-0.014-0.146-0.014
		c-0.176,0-0.708,0-1.062,1.732l1.626,0.306C46.572,27.487,46.62,27.091,46.617,26.747z"/>
	<path fill="#FFFFFF" d="M42.98,37.956c-0.192,0-0.339,0.11-0.575,0.343c-0.011,0.012-0.026,0.051-0.027,0.066v4.07
		c0,1.167,0.285,1.263,0.603,1.263c0.709,0,1.069-0.999,1.069-2.969S43.739,37.956,42.98,37.956z"/>
	<path fill="#FFFFFF" d="M34.272,34.606l0.091,0.002c1.088,0,1.774-0.432,1.788-1.128c0.015-0.779-0.708-0.961-1.315-0.976
		c-0.138-0.004-0.448,0.004-0.732,0.012l-0.224,0.005c-0.229,0.006-0.404,0.012-0.549,0.006c-0.345-0.008-0.594-0.025-0.992-0.102
		h-0.004c-0.018,0-0.039,0.006-0.046,0.01c-0.167,0.153-0.238,0.332-0.244,0.631C32.028,33.965,32.901,34.569,34.272,34.606z"/>
	<path fill="#FFFFFF" d="M33.987,28.113c0.42,0,0.772-0.117,0.804-1.543c0.02-0.849-0.094-1.409-0.341-1.666
		c-0.124-0.129-0.292-0.195-0.516-0.2c-0.39,0-0.775,0.12-0.808,1.525c-0.02,0.893,0.084,1.428,0.33,1.685
		C33.578,28.043,33.752,28.108,33.987,28.113z"/>
	<path fill="#FFFFFF" d="M62.247,0H1.753C0.786,0,0,0.785,0,1.753v60.493C0,63.214,0.786,64,1.753,64h60.493
		C63.214,64,64,63.214,64,62.247V1.753C64,0.785,63.214,0,62.247,0z M38.104,21.878c1.142-0.132,2.583-0.372,3.428-0.57
		c0.117-0.026,0.237,0.009,0.311,0.091c0.06,0.065,0.089,0.154,0.082,0.249l-0.798,8.446c-0.124,1.34-0.011,1.359,0.532,1.449
		c0.2,0.035,0.327,0.173,0.31,0.335c-0.012,0.15-0.155,0.26-0.34,0.26l-0.034-0.001l-3.061-0.29
		c-0.167-0.013-0.321-0.152-0.354-0.323l-0.025-0.106c-0.021-0.082-0.039-0.226-0.027-0.335l0.655-6.899
		c0.073-0.78,0.05-1.063-0.107-1.312c-0.122-0.213-0.274-0.308-0.586-0.361c-0.187-0.032-0.316-0.163-0.316-0.316
		C37.773,22.034,37.912,21.901,38.104,21.878z M30.596,26.4c0.017-0.821,0.572-1.565,1.525-2.044
		c0.509-0.265,0.951-0.376,1.66-0.415l0.001-0.042c0.033-1.433,0.79-2.359,1.928-2.359h0.048c0.396,0.01,0.76,0.156,1.027,0.413
		c0.272,0.262,0.416,0.614,0.407,0.99c-0.017,0.707-0.549,1.26-1.214,1.26c-0.381-0.01-0.665-0.156-0.984-0.505
		c-0.258-0.283-0.302-0.296-0.368-0.298c-0.068,0-0.21,0-0.239,0.544l0.072,0.002c0.61,0.032,1.36,0.318,1.956,0.746
		c0.59,0.442,0.92,1.064,0.906,1.71c-0.026,1.394-1.48,2.486-3.308,2.486l-0.122-0.002c-0.555-0.015-0.985-0.097-1.532-0.295
		c-0.156,0.142-0.186,0.22-0.188,0.328c-0.008,0.36,0.089,0.639,1.376,0.673c0.217,0.009,0.526-0.002,0.921-0.022h0.042
		c0.335-0.007,0.672-0.012,0.9-0.008c1.598,0.043,2.736,1.141,2.707,2.612c-0.035,1.864-1.945,3.269-4.442,3.269
		c-0.059,0-0.118-0.001-0.176-0.003c-2.025-0.053-3.269-0.772-3.247-1.876c0.011-0.57,0.389-1.065,1.099-1.44
		c-0.741-0.359-1.12-0.938-1.106-1.69c0.018-0.838,0.466-1.53,1.407-2.165C30.943,27.85,30.58,27.208,30.596,26.4z M17.966,21.55
		c0.968-0.103,1.77,0.573,1.873,1.525c0.046,0.44-0.086,0.875-0.372,1.224c-0.285,0.351-0.686,0.57-1.13,0.616
		c-0.06,0.007-0.121,0.01-0.18,0.01c-0.871,0-1.596-0.654-1.69-1.52C16.369,22.48,17.042,21.648,17.966,21.55z M16.275,26.198
		c1.088-0.379,2.45-0.935,3.237-1.325c0.192-0.094,0.432,0.038,0.455,0.251l0.545,5.145c0.131,1.248,0.244,1.248,0.661,1.248
		c0.081,0,0.17-0.004,0.269-0.011c0.775-0.079,0.875-0.089,0.793-1.449l-0.132-2.257c-0.047-0.791-0.113-1.07-0.308-1.295
		c-0.148-0.178-0.317-0.25-0.625-0.266c-0.139-0.006-0.316-0.073-0.358-0.24c-0.045-0.157,0.069-0.32,0.265-0.376
		c1.057-0.304,2.013-0.645,3.298-1.179c0.039-0.018,0.082-0.025,0.125-0.025c0.167,0,0.306,0.132,0.315,0.302l0.038,0.641
		c0.742-0.762,1.38-1.084,2.219-1.134c0.705-0.042,1.305,0.174,1.628,0.579c0.278,0.319,0.402,0.737,0.451,1.539l0.21,3.564
		c0.05,1.049,0.138,1.055,0.563,1.081c0.189,0.014,0.342,0.166,0.347,0.347c0.004,0.092-0.03,0.181-0.094,0.247
		c-0.066,0.068-0.16,0.109-0.256,0.11l-0.281,0.004c-1.106,0.013-2.229,0.05-3.339,0.11c0,0,0,0-0.001,0
		c-0.216,0-0.362-0.11-0.373-0.273c-0.01-0.153,0.109-0.281,0.3-0.326c0.176-0.044,0.212-0.111,0.238-0.189
		c0.046-0.142,0.053-0.253,0.011-0.938l-0.154-2.601c-0.061-1.077-0.103-1.291-0.212-1.471c-0.063-0.116-0.231-0.201-0.392-0.201
		l-0.032,0.001c-0.229,0.013-0.501,0.248-0.761,0.501c-0.006,0.008-0.018,0.038-0.018,0.05l0.232,3.798
		c0.049,1.049,0.139,1.06,0.383,1.09c0.191,0.024,0.322,0.136,0.333,0.287c0.005,0.069-0.018,0.139-0.067,0.197
		c-0.063,0.07-0.161,0.114-0.272,0.121c-4.509,0.284-7.714,0.868-8.31,0.982c-0.026,0.005-0.055,0.009-0.088,0.009
		c-0.2,0-0.303-0.129-0.315-0.25c-0.017-0.16,0.103-0.295,0.3-0.336c0.558-0.114,0.683-0.294,0.536-1.688l-0.238-2.247
		c-0.084-0.778-0.164-1.053-0.371-1.284c-0.153-0.167-0.327-0.23-0.643-0.23c-0.191,0-0.34-0.098-0.371-0.245
		C15.984,26.413,16.091,26.262,16.275,26.198z M14.361,33.839c-0.699,0.216-1.791,0.398-2.997,0.501
		c-0.378,0.034-0.52,0.05-0.631,0.083c-0.167,0.053-0.173,0.093-0.178,0.132c-0.028,0.232-0.139,0.312-0.226,0.339l-0.068,0.011
		h-0.008c-0.136,0-0.259-0.102-0.31-0.259l-1.3-3.779c-0.037-0.109-0.032-0.214,0.011-0.299c0.034-0.067,0.091-0.115,0.159-0.136
		l0.067-0.011c0,0,0.001,0,0.002,0c0.181,0,0.294,0.143,0.324,0.188c0.564,0.807,1.34,1.518,2.308,2.115
		c0.551,0.345,1.031,0.506,1.511,0.506c0.379,0,0.749-0.098,1.061-0.196c0.413-0.127,0.699-0.296,0.85-0.505
		c0.15-0.207,0.174-0.464,0.075-0.786c-0.2-0.651-0.843-0.957-2.222-1.056l-1.444-0.103c-1.984-0.157-2.982-0.717-3.339-1.874
		c-0.542-1.76,0.614-3.569,2.688-4.208c0.563-0.174,1.024-0.243,2.146-0.324c0.31-0.018,0.482-0.054,0.571-0.082
		c0.051-0.016,0.065-0.025,0.068-0.028c-0.001,0,0.001-0.008,0.002-0.029c0.022-0.252,0.15-0.327,0.224-0.35l0.06-0.011
		c0.001,0,0.002,0,0.003,0c0.149,0,0.27,0.101,0.324,0.255l1.067,2.985c0.037,0.107,0.034,0.216-0.009,0.3
		c-0.032,0.065-0.091,0.115-0.16,0.136l-0.065,0.011c0,0-0.001,0-0.002,0c-0.176,0-0.292-0.136-0.323-0.178
		c-0.924-1.248-2.023-1.935-3.092-1.935c-0.245,0-0.489,0.036-0.721,0.108c-0.773,0.238-1.038,0.604-0.858,1.184
		c0.101,0.329,0.337,0.592,0.63,0.702c0.347,0.143,1.04,0.264,1.812,0.316l1.365,0.083c1.767,0.128,2.765,0.761,3.147,1.991
		c0.266,0.861,0.151,1.766-0.321,2.545C16.091,32.96,15.31,33.547,14.361,33.839z M25.06,44.05c-0.005,0.2-0.132,0.351-0.298,0.351
		c-0.193,0-0.277-0.189-0.309-0.26c-0.009-0.021-0.012-0.028-0.062-0.028c-0.123,0-0.419,0.052-1.32,0.23
		c-0.316,0.054-0.962,0.115-1.355,0.115c-3.016,0-5.379-2.217-5.379-5.049c0-2.785,2.279-4.967,5.186-4.967
		c0.523,0,1.22,0.092,1.912,0.253c0.392,0.092,0.547,0.119,0.693,0.119c0.077,0,0.083-0.009,0.096-0.032
		c0.06-0.099,0.158-0.231,0.316-0.231c0.163,0,0.29,0.145,0.302,0.344l0.204,3.403c0.006,0.117-0.026,0.217-0.092,0.285
		c-0.049,0.054-0.118,0.086-0.194,0.086c-0.169,0-0.281-0.151-0.324-0.279c-0.29-0.884-0.661-1.575-1.202-2.245
		c-0.565-0.7-1.115-0.843-1.769-0.843c-1.202,0-1.786,1.37-1.786,4.189c0,1.647,0.235,2.74,0.761,3.543
		c0.255,0.38,0.677,0.551,1.369,0.551c0.632,0,1.18-0.192,1.797-1.129c0.442-0.658,0.718-1.281,0.956-2.151
		c0.039-0.146,0.153-0.294,0.32-0.294c0.072,0,0.14,0.029,0.193,0.083c0.064,0.065,0.1,0.167,0.097,0.28L25.06,44.05z
		 M30.086,44.263h-4.199c-0.208,0-0.359-0.124-0.359-0.294c0-0.161,0.145-0.288,0.345-0.302c0.572-0.04,0.676-0.047,0.676-1.395
		v-5.664c0-0.785-0.049-1.063-0.229-1.297c-0.14-0.202-0.301-0.281-0.615-0.306c-0.19-0.014-0.333-0.132-0.347-0.288
		c-0.014-0.156,0.11-0.301,0.297-0.344c1.114-0.235,2.528-0.608,3.361-0.888c0.208-0.07,0.422,0.088,0.422,0.303v8.481
		c0,1.346,0.115,1.355,0.666,1.395c0.197,0.014,0.341,0.14,0.341,0.302C30.446,44.139,30.295,44.263,30.086,44.263z M38.811,43.483
		c-0.575,0.105-1,0.225-1.539,0.396l-1.611,0.511c-0.032,0.011-0.067,0.017-0.101,0.017c-0.175,0-0.317-0.145-0.317-0.323v-0.661
		c-0.244,0.21-0.39,0.316-0.56,0.43c-0.571,0.38-1.222,0.588-1.833,0.588c-0.599,0-1.207-0.274-1.516-0.681
		c-0.259-0.354-0.35-0.764-0.35-1.569v-3.074c0-1.255-0.182-1.337-0.712-1.391c-0.201-0.021-0.335-0.144-0.335-0.304
		c0-0.165,0.146-0.289,0.347-0.298c0.72-0.03,2.214-0.197,3.196-0.356l0.049-0.005h0.001c0.197,0,0.344,0.148,0.344,0.338v4.856
		c0,0.443,0.032,0.654,0.122,0.811c0.072,0.136,0.274,0.232,0.48,0.232c0.242,0,0.465-0.111,0.745-0.372
		c0.008-0.009,0.022-0.046,0.023-0.06v-3.451c0-1.255-0.183-1.337-0.714-1.391c-0.197-0.021-0.334-0.146-0.334-0.304
		c0-0.165,0.146-0.289,0.347-0.298c0.72-0.03,2.215-0.197,3.199-0.356l0.047-0.005h0.001c0.197,0,0.344,0.148,0.344,0.338v4.429
		c0,1.105,0.195,1.248,0.673,1.331c0.19,0.033,0.317,0.158,0.317,0.31C39.124,43.319,38.995,43.448,38.811,43.483z M43.021,44.441
		c-0.709,0-0.956-0.054-2.21-0.48c-0.229-0.082-0.257-0.085-0.341-0.085c-0.165,0-0.277,0.048-0.369,0.293
		c-0.048,0.131-0.157,0.272-0.32,0.272c-0.167,0-0.294-0.153-0.294-0.357V36.61c0-0.782-0.05-1.061-0.23-1.297
		c-0.139-0.199-0.302-0.281-0.603-0.306c-0.152-0.012-0.318-0.099-0.348-0.268c-0.031-0.163,0.093-0.319,0.288-0.363
		c1.12-0.235,2.595-0.623,3.36-0.886c0.218-0.07,0.423,0.087,0.423,0.302v3.544c0.571-0.399,1.157-0.594,1.788-0.594
		c1.688,0,2.912,1.456,2.912,3.463C47.078,42.62,45.334,44.441,43.021,44.441z M47.786,32.06c-0.636,0.541-1.426,0.827-2.285,0.827
		c-0.232,0-0.469-0.021-0.705-0.063c-2.168-0.39-3.517-2.272-3.139-4.378c0.339-1.881,1.97-3.246,3.878-3.246
		c0.244,0,0.491,0.022,0.732,0.066c1.179,0.211,2.138,0.897,2.632,1.881c0.3,0.596,0.392,1.084,0.352,1.865l-0.007,0.116
		c-0.011,0.174-0.155,0.305-0.336,0.305c-0.019,0-0.041-0.002-0.063-0.006l-4.135-0.736c-0.103,1.284,0.431,1.989,1.678,2.213
		c0.871,0.157,1.435-0.017,2.079-0.639c0.128-0.124,0.315-0.16,0.434-0.079c0.133,0.093,0.156,0.283,0.054,0.453
		C48.549,31.306,48.265,31.652,47.786,32.06z M53.392,29.122l0.82,0.544c1.36,0.915,1.836,1.788,1.542,2.832
		c-0.327,1.169-1.381,1.895-2.75,1.895c-0.375,0-0.76-0.054-1.148-0.164c-0.666-0.187-1.706-0.756-2.713-1.485
		c-0.132-0.096-0.201-0.28-0.165-0.439l0.549-2.421c0.04-0.172,0.163-0.287,0.306-0.287l0.054,0.006
		c0.169,0.047,0.245,0.21,0.264,0.338c0.288,1.945,1.049,3.228,2.092,3.52c0.58,0.163,0.892,0.081,0.997-0.295
		c0.097-0.353,0.1-0.675-0.821-1.327l-0.584-0.422c-1.599-1.143-2.128-2.047-1.825-3.123c0.293-1.045,1.287-1.696,2.595-1.696
		c0.375,0,0.76,0.055,1.147,0.165c0.696,0.195,1.369,0.502,2.185,0.999c0.145,0.088,0.223,0.273,0.186,0.439l-0.422,1.954
		c-0.035,0.173-0.158,0.289-0.303,0.289l-0.057-0.007c-0.166-0.043-0.242-0.208-0.26-0.338c-0.19-1.302-0.825-2.32-1.582-2.533
		c-0.146-0.04-0.288-0.061-0.413-0.061c-0.286,0-0.453,0.1-0.512,0.307C52.454,28.24,52.722,28.668,53.392,29.122z"/>
</g>
</svg>
