<?xml version="1.0" encoding="utf-8"?>
<!-- Generator: Adobe Illustrator 17.0.2, SVG Export Plug-In . SVG Version: 6.00 Build 0)  -->
<!DOCTYPE svg PUBLIC "-//W3C//DTD SVG 1.1//EN" "http://www.w3.org/Graphics/SVG/1.1/DTD/svg11.dtd">
<svg version="1.1" id="Layer_1" xmlns="http://www.w3.org/2000/svg" xmlns:xlink="http://www.w3.org/1999/xlink" x="0px" y="0px"
	 width="32px" height="32px" viewBox="0 0 32 32" enable-background="new 0 0 32 32" xml:space="preserve">
<g>
	<path d="M2,7C1.448,7,1,6.552,1,6V2c0-0.552,0.448-1,1-1h28c0.553,0,1,0.448,1,1v4c0,0.552-0.447,1-1,1H2z"/>
	<path d="M30,2v4H2V2H30 M30,0H2C0.895,0,0,0.895,0,2v4c0,1.105,0.895,2,2,2h28c1.105,0,2-0.895,2-2V2C32,0.895,31.105,0,30,0L30,0z
		"/>
</g>
<g>
	<path d="M2,19c-0.552,0-1-0.447-1-1v-4c0-0.552,0.448-1,1-1h28c0.553,0,1,0.448,1,1v4c0,0.553-0.447,1-1,1H2z"/>
	<path d="M30,14v4H2v-4H30 M30,12H2c-1.105,0-2,0.895-2,2v4c0,1.105,0.895,2,2,2h28c1.105,0,2-0.895,2-2v-4
		C32,12.895,31.105,12,30,12L30,12z"/>
</g>
<g>
	<path d="M2,31c-0.552,0-1-0.447-1-1v-4c0-0.553,0.448-1,1-1h28c0.553,0,1,0.447,1,1v4c0,0.553-0.447,1-1,1H2z"/>
	<path d="M30,26v4H2v-4H30 M30,24H2c-1.105,0-2,0.895-2,2v4c0,1.105,0.895,2,2,2h28c1.105,0,2-0.895,2-2v-4
		C32,24.895,31.105,24,30,24L30,24z"/>
</g>
</svg>
