<?xml version="1.0" encoding="utf-8"?>
<!-- Generator: Adobe Illustrator 16.2.1, SVG Export Plug-In . SVG Version: 6.00 Build 0)  -->
<!DOCTYPE svg PUBLIC "-//W3C//DTD SVG 1.1//EN" "http://www.w3.org/Graphics/SVG/1.1/DTD/svg11.dtd">
<svg version="1.1" id="Layer_1" xmlns="http://www.w3.org/2000/svg" xmlns:xlink="http://www.w3.org/1999/xlink" x="0px" y="0px"
	 width="150.483px" height="69.083px" viewBox="-416.432 -126.816 150.483 69.083"
	 enable-background="new -416.432 -126.816 150.483 69.083" xml:space="preserve">
<path fill="#FFFFFF" d="M-346.375-58.681c0,0.208-0.232,0.359-0.551,0.359h-12.823c-0.319,0-0.551-0.151-0.551-0.359
	c0-0.226,0.272-0.363,0.541-0.382c2.26-0.157,2.572-0.74,2.572-4.793v-17.29c0-2.528-0.174-3.45-0.812-4.285
	c-0.515-0.737-1.148-1.056-2.264-1.142c-0.257-0.022-0.542-0.151-0.563-0.389c-0.02-0.204,0.191-0.406,0.489-0.471
	c3.445-0.729,7.783-1.875,10.315-2.727c0.297-0.101,0.577,0.101,0.577,0.414v25.89c0,4.048,0.307,4.63,2.532,4.793
	C-346.602-59.041-346.375-58.881-346.375-58.681z M-303.754-80.2c-2.061,0-3.997,0.739-5.92,2.259
	c-0.033,0.026-0.056,0.036-0.062,0.041c-0.004-0.01-0.011-0.033-0.011-0.075v-11.771c0-0.312-0.271-0.514-0.577-0.411
	c-2.341,0.805-6.872,2.002-10.315,2.723c-0.305,0.066-0.506,0.275-0.467,0.485c0.043,0.228,0.33,0.354,0.579,0.375
	c1.088,0.09,1.711,0.408,2.225,1.142c0.637,0.834,0.811,1.756,0.811,4.285v22.818c0,0.313,0.154,0.55,0.359,0.55
	c0.218,0,0.39-0.258,0.471-0.479c0.32-0.86,0.823-1.243,1.632-1.243c0.357,0,0.504,0.035,1.213,0.288
	c3.749,1.274,4.485,1.435,6.57,1.435c6.752,0,11.843-5.326,11.843-12.39C-295.402-75.981-298.914-80.2-303.754-80.2z
	 M-307.37-58.971c-1.711,0-2.376-1.232-2.376-4.395v-12.427c0-0.185,0.112-0.456,0.24-0.581c0.796-0.781,1.372-1.204,2.136-1.204
	c2.703,0,3.805,2.61,3.805,9.009C-303.565-62.021-304.775-58.971-307.37-58.971z M-320.505-61.538
	c-1.967-0.336-2.505-1.323-2.505-4.592v-13.519c0-0.308-0.243-0.535-0.569-0.484c-3.006,0.49-7.598,1.001-9.829,1.096
	c-0.314,0.015-0.542,0.171-0.542,0.372c0,0.196,0.219,0.357,0.534,0.392c2.189,0.22,2.663,1.07,2.663,4.783v10.535
	c0,0.187-0.115,0.456-0.244,0.578c-0.961,0.895-1.749,1.277-2.636,1.277c-0.831,0-1.625-0.4-1.934-0.978
	c-0.327-0.571-0.444-1.29-0.444-2.744v-14.826c0-0.308-0.246-0.535-0.569-0.484c-3.004,0.49-7.596,1.001-9.827,1.096
	c-0.314,0.015-0.543,0.171-0.543,0.372c0,0.196,0.22,0.357,0.534,0.392c2.189,0.22,2.663,1.07,2.663,4.783v9.383
	c0,2.325,0.25,3.493,0.957,4.463c0.846,1.117,2.533,1.867,4.199,1.867c1.764,0,3.646-0.605,5.299-1.707
	c0.683-0.455,1.231-0.872,2.495-2.014c0.019-0.017,0.034-0.027,0.045-0.034c0.003,0.013,0.006,0.033,0.006,0.058v3.146
	c0,0.312,0.271,0.519,0.577,0.423l4.916-1.561c1.618-0.515,2.979-0.9,4.76-1.229c0.257-0.047,0.518-0.209,0.518-0.427
	C-319.981-61.344-320.243-61.491-320.505-61.538z M-274.71-108.19c0.437,0,0.911,0.071,1.408,0.211
	c2.511,0.704,4.607,3.989,5.216,8.173c0.034,0.241,0.162,0.523,0.363,0.577c0.197,0.055,0.41-0.144,0.472-0.449l1.29-5.97
	c0.057-0.279-0.086-0.613-0.327-0.762c-2.446-1.485-4.461-2.408-6.533-2.99c-1.131-0.318-2.259-0.479-3.353-0.479
	c-3.739,0-6.576,1.833-7.404,4.781c-0.848,3.022,0.708,5.616,5.37,8.948l1.779,1.287c2.499,1.769,3.182,2.939,2.707,4.634
	c-0.288,1.028-0.98,1.526-2.113,1.526c-0.46,0-0.996-0.084-1.593-0.251c-3.394-0.951-5.862-5.028-6.771-11.188
	c-0.036-0.238-0.164-0.521-0.363-0.578c-0.198-0.056-0.412,0.142-0.477,0.447l-1.679,7.388c-0.06,0.277,0.069,0.623,0.294,0.784
	c3.026,2.193,6.134,3.899,8.112,4.453c1.136,0.318,2.264,0.48,3.354,0.48c3.927,0,6.945-2.065,7.878-5.391
	c0.82-2.924-0.563-5.406-4.491-8.048l-2.503-1.665c-2.266-1.53-3.153-3.031-2.716-4.591
	C-276.481-107.959-275.488-108.19-274.71-108.19z M-288.573-109.269c-1.43-2.85-4.217-4.837-7.647-5.454
	c-0.709-0.128-1.43-0.192-2.141-0.192c-5.563,0-10.318,3.981-11.304,9.467c-0.53,2.945,0.112,5.868,1.805,8.229
	c1.694,2.362,4.302,3.963,7.342,4.509c0.689,0.124,1.381,0.187,2.058,0.187c2.488,0,4.778-0.829,6.621-2.399
	c1.418-1.206,2.258-2.229,3.455-4.208c0.424-0.7-0.248-1.281-0.863-0.69c-1.608,1.561-2.974,2.469-4.906,2.469
	c-0.534,0-1.088-0.053-1.695-0.162c-4.188-0.756-6.007-3.27-5.562-7.684c0.013-0.133,0.137-0.225,0.272-0.201l12.973,2.312
	c0.037,0.007,0.073,0.01,0.108,0.01c0.267,0,0.47-0.178,0.483-0.422l0.021-0.348C-287.44-106.129-287.707-107.549-288.573-109.269z
	 M-295.056-106.095c-0.022,0.136-0.149,0.233-0.294,0.206l-5.587-1.004c-0.066-0.012-0.125-0.049-0.164-0.104
	c-0.038-0.056-0.051-0.122-0.038-0.187c0.792-4.13,2.011-6.054,3.836-6.054c0.173,0,0.354,0.017,0.541,0.051
	c1.382,0.248,2.229,0.5,2.241,2.456C-294.508-109.643-294.654-108.386-295.056-106.095z M-389.983-101.735
	c-1.101-3.564-3.913-5.322-9.122-5.698l-4.173-0.255c-2.409-0.165-4.585-0.548-5.683-1c-1.05-0.395-1.891-1.324-2.249-2.488
	c-0.637-2.069,0.335-3.471,2.975-4.286c0.765-0.235,1.559-0.355,2.362-0.355c3.443,0,6.948,2.174,9.872,6.123
	c0.175,0.236,0.417,0.374,0.601,0.32c0.071-0.022,0.129-0.073,0.167-0.146c0.062-0.122,0.06-0.304-0.005-0.487l-3.254-9.115
	c-0.104-0.291-0.337-0.466-0.519-0.41c-0.236,0.072-0.29,0.441-0.303,0.596c-0.028,0.365-0.167,0.516-0.592,0.646
	c-0.305,0.094-0.876,0.218-1.862,0.271c-3.378,0.241-4.761,0.449-6.431,0.964c-6.039,1.86-9.415,7.093-7.851,12.172
	c1.014,3.286,3.919,4.883,9.715,5.339l4.41,0.313c4.47,0.327,6.574,1.37,7.264,3.605c0.688,2.234-0.354,3.743-3.182,4.616
	c-0.995,0.307-2.177,0.62-3.397,0.62c-1.572,0-3.126-0.517-4.892-1.627c-3.023-1.856-5.448-4.08-7.208-6.607
	c-0.137-0.196-0.389-0.392-0.594-0.331c-0.072,0.021-0.129,0.072-0.167,0.145c-0.062,0.123-0.062,0.305,0,0.489l3.969,11.538
	c0.086,0.254,0.262,0.425,0.437,0.425c0.027,0,0.054-0.004,0.078-0.012c0.162-0.047,0.267-0.246,0.309-0.588
	c0.053-0.427,0.304-0.657,0.921-0.848c0.393-0.12,0.832-0.165,2.04-0.277c3.635-0.307,6.928-0.855,9.035-1.506
	C-391.549-91.367-388.397-96.587-389.983-101.735z M-361.393-114.116c0.734-0.043,1.481,0.325,1.775,0.87
	c0.412,0.677,0.535,1.474,0.728,4.736l0.468,7.937c0.13,2.186,0.104,2.555-0.06,3.068c-0.171,0.512-0.494,0.782-1.117,0.932
	c-0.312,0.075-0.507,0.245-0.498,0.436c0.009,0.193,0.224,0.33,0.519,0.33l0.053-0.001c3.418-0.183,6.854-0.295,10.215-0.334
	l0.195-0.002c0.241-0.002,0.463-0.005,0.662-0.007c0.152-0.001,0.297-0.062,0.398-0.169c0.094-0.099,0.143-0.227,0.138-0.36
	c-0.007-0.281-0.25-0.52-0.556-0.542c-1.798-0.115-2.068-0.577-2.219-3.807l-0.644-10.879c-0.137-2.309-0.479-3.501-1.255-4.394
	c-0.875-1.097-2.547-1.682-4.516-1.565c-2.724,0.161-4.688,1.295-7.245,4.19c-0.01,0.01-0.017,0.019-0.024,0.025
	c-0.001-0.01-0.003-0.021-0.003-0.036l-0.188-3.188c-0.019-0.313-0.31-0.497-0.601-0.375c-3.92,1.629-6.853,2.678-10.123,3.62
	c-0.307,0.088-0.49,0.297-0.435,0.501c0.057,0.206,0.34,0.312,0.596,0.325c1.096,0.053,1.737,0.332,2.29,0.996
	c0.686,0.797,0.916,1.716,1.068,4.273l0.408,6.889c0.248,4.189-0.053,4.703-2.929,4.997c-0.354,0.021-0.626,0.031-0.856,0.031
	c-1.825,0-2.159-0.562-2.552-4.296l-1.663-15.705c-0.034-0.313-0.328-0.481-0.616-0.338c-2.398,1.187-6.582,2.897-9.946,4.069
	c-0.251,0.087-0.481,0.29-0.436,0.509c0.045,0.217,0.337,0.317,0.608,0.317c1.12,0,1.782,0.246,2.361,0.88
	c0.727,0.805,0.999,1.712,1.264,4.222l0.726,6.861c0.427,4.031,0.209,5.273-2.062,5.736c-0.31,0.063-0.512,0.244-0.491,0.441
	c0.02,0.167,0.187,0.275,0.427,0.275l0,0c0.052,0,0.107-0.005,0.165-0.016c1.827-0.349,11.638-2.133,25.438-3.005
	c0.191-0.012,0.361-0.081,0.452-0.186c0.054-0.062,0.08-0.133,0.076-0.204c-0.012-0.218-0.282-0.349-0.544-0.381
	c-1.252-0.157-1.498-0.728-1.643-3.828l-0.709-11.593c-0.01-0.182,0.093-0.449,0.219-0.572
	C-363.075-113.407-362.237-114.066-361.393-114.116z M-322.205-124.191c1.107,0.193,1.71,0.57,2.152,1.348
	c0.555,0.893,0.643,1.825,0.406,4.343l-1.999,21.062c-0.028,0.251,0.014,0.623,0.07,0.844c0.031,0.117,0.056,0.233,0.081,0.348
	c0.058,0.285,0.325,0.528,0.605,0.553l9.319,0.879c0.028,0.003,0.055,0.003,0.083,0.003c0.283,0,0.484-0.125,0.5-0.31
	c0.017-0.199-0.189-0.376-0.501-0.431c-2.199-0.368-2.45-0.976-2.072-5.009l2.428-25.777c0.013-0.137-0.024-0.262-0.105-0.35
	c-0.101-0.111-0.262-0.154-0.427-0.114c-2.581,0.606-7.008,1.342-10.527,1.749c-0.302,0.037-0.532,0.219-0.534,0.425
	C-322.727-124.399-322.464-124.236-322.205-124.191z M-331.107-101.601c-0.737-0.023-1.864,0.003-2.832,0.024
	c-1.183,0.061-2.199,0.088-2.853,0.068c-3.525-0.092-4.762-0.775-4.725-2.61c0.012-0.526,0.211-0.892,0.761-1.397
	c0.117-0.105,0.377-0.152,0.532-0.097c1.624,0.583,2.886,0.828,4.507,0.871l0.095,0.001c0.09,0.002,0.18,0.003,0.269,0.003
	c5.281,0,9.479-3.101,9.558-7.059c0.037-1.797-0.888-3.535-2.539-4.773c-1.74-1.245-3.915-2.078-5.677-2.174l-0.507-0.013
	c0,0-0.089-0.001-0.201-0.006c-0.032-0.001-0.052-0.019-0.052-0.031l0.003-0.177c0.051-2.211,0.657-2.516,1.299-2.516
	c0.444,0.013,0.699,0.195,1.509,1.084c0.875,0.959,1.604,1.342,2.604,1.366c1.763,0,3.124-1.426,3.168-3.316
	c0.047-2.075-1.608-3.677-3.845-3.73c-0.049-0.003-0.093-0.003-0.138-0.003c-3.155,0-5.252,2.622-5.345,6.677l-0.007,0.387
	c-0.004,0.136-0.125,0.252-0.271,0.259c-2.21,0.103-3.542,0.421-5.087,1.22c-2.724,1.366-4.313,3.47-4.358,5.769
	c-0.05,2.516,1.209,4.448,3.646,5.588c0.053,0.025,0.072,0.048,0.074,0.049c-0.002,0.006-0.017,0.03-0.065,0.06
	c-3.184,1.957-4.688,4.058-4.739,6.611c-0.048,2.42,1.399,4.188,4.187,5.112c-2.689,1.104-4.129,2.641-4.163,4.444
	c-0.062,3.037,3.534,5.02,9.386,5.176c0.177,0.004,0.351,0.007,0.525,0.007c7.319,0,12.918-4.063,13.024-9.452
	C-323.282-98.357-326.538-101.478-331.107-101.601z M-338.597-112.317c0.101-4.302,1.278-5.183,3.014-5.184
	c0.834,0.019,1.474,0.272,1.956,0.775c0.868,0.907,1.258,2.698,1.192,5.474c-0.103,4.378-1.181,5.234-3.005,5.234
	c-0.869-0.019-1.524-0.271-2.003-0.771C-338.299-107.685-338.666-109.441-338.597-112.317z M-334.291-86.193
	c-0.095,0-0.19-0.001-0.284-0.003c-4.506-0.122-7.378-2.185-7.316-5.254c0.021-1.058,0.306-1.757,0.952-2.337
	c0.099-0.087,0.292-0.148,0.471-0.148c0.039,0,0.076,0.003,0.11,0.01c1.155,0.224,1.898,0.278,2.946,0.303
	c0.439,0.017,0.996,0,1.662-0.019l0.662-0.016c1.207-0.037,1.912-0.046,2.266-0.038c2.969,0.08,4.581,1.335,4.538,3.533
	C-328.333-87.714-330.635-86.193-334.291-86.193z M-384.353-116.826c0.162,0,0.329-0.008,0.491-0.026
	c1.209-0.127,2.307-0.726,3.088-1.686c0.78-0.958,1.139-2.144,1.013-3.337c-0.258-2.437-2.194-4.206-4.604-4.206
	c-0.17,0-0.342,0.009-0.513,0.027c-2.527,0.269-4.365,2.543-4.099,5.067C-388.726-118.614-386.737-116.826-384.353-116.826z
	 M-363.106-70.23c-0.214,0-0.391,0.252-0.458,0.5c-0.741,2.718-1.608,4.665-2.991,6.72c-2.133,3.243-4.114,3.69-5.936,3.69
	c-1.557,0-3.491-0.219-4.629-1.924c-1.669-2.548-2.414-5.973-2.414-11.109c0-8.968,1.96-13.329,5.994-13.329
	c2.146,0,3.956,0.473,5.815,2.779c1.695,2.097,2.856,4.26,3.763,7.016c0.08,0.242,0.269,0.485,0.474,0.485
	c0.076,0,0.148-0.033,0.205-0.092c0.094-0.101,0.142-0.275,0.128-0.467l-0.622-10.386c-0.017-0.309-0.182-0.542-0.383-0.542
	c-0.159,0-0.329,0.149-0.503,0.44c-0.159,0.263-0.365,0.359-0.76,0.359c-0.493,0-0.996-0.083-2.237-0.373
	c-2.07-0.485-4.152-0.763-5.714-0.763c-8.575,0-15.293,6.422-15.293,14.621c0,8.34,6.977,14.873,15.882,14.873
	c1.184,0,3.1-0.179,4.026-0.341c2.871-0.565,3.72-0.711,4.136-0.711c0.347,0,0.565,0.129,0.686,0.406
	c0.143,0.33,0.282,0.477,0.449,0.477c0.205,0,0.361-0.229,0.373-0.547l0.354-11.225c0.006-0.193-0.049-0.367-0.145-0.467
	C-362.962-70.2-363.032-70.23-363.106-70.23z"/>
</svg>
