<?xml version="1.0" encoding="utf-8"?>
<!-- Generator: Adobe Illustrator 16.2.1, SVG Export Plug-In . SVG Version: 6.00 Build 0)  -->
<!DOCTYPE svg PUBLIC "-//W3C//DTD SVG 1.1//EN" "http://www.w3.org/Graphics/SVG/1.1/DTD/svg11.dtd">
<svg version="1.1" id="Layer_1" xmlns="http://www.w3.org/2000/svg" xmlns:xlink="http://www.w3.org/1999/xlink" x="0px" y="0px"
	 width="582px" height="63px" viewBox="0 0 582 63" enable-background="new 0 0 582 63" xml:space="preserve">
<g>
	<path fill="#FFFFFF" d="M7.39,58.641c1.008-0.648,1.8-1.584,1.8-2.88V6.22c0.432,0.576,1.152,1.152,2.088,1.152
		s2.592-0.288,4.393-0.576c1.872-0.288,3.96-0.576,5.688-0.576c15.481,0,28.083,11.449,28.083,26.21
		c0,15.337-11.161,26.21-28.083,26.21H7.39z M23.015,49.712c7.705,0,16.921-5.905,16.921-17.138c0-9.865-9.073-17.137-16.921-17.137
		c-1.873,0-2.953,0.216-4.321,0.288v33.987H23.015z"/>
	<path fill="#FFFFFF" d="M62.967,47.696l-1.08,2.808c-0.72,1.872-1.656,4.464-1.656,5.761c0,1.008,0.504,1.8,1.008,2.376H48.277
		c1.08-1.08,2.088-2.664,2.665-4.249l14.617-38.883c0.72-1.872,1.656-4.464,1.656-5.76c0-1.008-0.504-1.8-1.008-2.376h10.441
		l18.218,47.02c0.576,1.584,1.584,3.168,2.664,4.249H84.353c0.504-0.576,1.008-1.368,1.008-2.376c0-1.296-0.936-3.889-1.656-5.761
		l-1.08-2.808H62.967z M79.744,39.199l-7.128-20.81h-0.144l-6.409,20.81H79.744z"/>
	<path fill="#FFFFFF" d="M111.588,24.798h-0.145V55.76c0,1.296,0.793,2.232,1.801,2.88h-13.105c1.008-0.648,1.8-1.584,1.8-2.88
		V10.252c0-1.296-0.792-2.232-1.8-2.88h11.665l19.226,32.907h0.145V10.252c0-1.296-0.792-2.232-1.801-2.88h13.105
		c-1.008,0.648-1.8,1.584-1.8,2.88V55.76c0,1.296,0.792,2.232,1.8,2.88h-10.945L111.588,24.798z"/>
	<path fill="#FFFFFF" d="M148.781,58.641c1.009-0.648,1.801-1.584,1.801-2.88V10.252c0-1.296-0.792-2.232-1.801-2.88h13.105
		c-1.008,0.648-1.8,1.584-1.8,2.88V55.76c0,1.296,0.792,2.232,1.8,2.88H148.781z"/>
	<path fill="#FFFFFF" d="M167.94,58.641c1.009-0.648,1.801-1.584,1.801-2.88V10.252c0-1.296-0.792-2.232-1.801-2.88h30.675v10.801
		c-1.08-1.44-2.376-2.304-4.968-2.304h-14.401v12.673h8.784c2.017,0,3.24-0.504,4.393-1.584v11.665
		c-1.152-1.08-2.376-1.584-4.393-1.584h-8.784v13.105h14.401c2.592,0,3.888-0.864,4.968-2.304v10.801H167.94z"/>
	<path fill="#FFFFFF" d="M217.118,7.372c-1.009,0.648-1.801,1.584-1.801,2.88v39.892h12.386c2.592,0,3.888-0.864,4.968-2.304v10.801
		h-28.658c1.008-0.648,1.8-1.584,1.8-2.88V10.252c0-1.296-0.792-2.232-1.8-2.88H217.118z"/>
	<path fill="#FFFFFF" d="M258.083,58.641c1.009-0.648,1.801-1.584,1.801-2.88V6.22c0.647,0.72,1.224,1.152,2.232,1.152
		c0.792,0,2.448-0.288,4.248-0.576c1.872-0.288,3.96-0.576,5.688-0.576c10.225,0,17.354,6.696,17.354,15.337
		c0,3.528-1.08,5.904-3.385,7.417c4.896,1.8,6.913,7.272,6.913,12.025c0,10.513-7.345,17.642-19.37,17.642H258.083z M269.389,49.712
		h3.744c6.696,0,10.297-3.24,10.297-8.569c0-5.544-4.032-8.857-9.361-10.585c3.169-1.728,6.121-4.176,6.121-8.137
		c0-4.32-3.024-7.705-7.272-7.705c-1.152,0-2.809,0.432-3.528,0.864V49.712z"/>
	<path fill="#FFFFFF" d="M306.965,47.696l-1.08,2.808c-0.72,1.872-1.656,4.464-1.656,5.761c0,1.008,0.504,1.8,1.008,2.376h-12.961
		c1.08-1.08,2.088-2.664,2.664-4.249l14.617-38.883c0.721-1.872,1.656-4.464,1.656-5.76c0-1.008-0.504-1.8-1.008-2.376h10.44
		l18.218,47.02c0.576,1.584,1.584,3.168,2.664,4.249h-13.177c0.504-0.576,1.008-1.368,1.008-2.376c0-1.296-0.936-3.889-1.656-5.761
		l-1.08-2.808H306.965z M323.742,39.199l-7.129-20.81h-0.144l-6.408,20.81H323.742z"/>
	<path fill="#FFFFFF" d="M378.023,19.901c-2.16-2.592-5.4-4.464-10.729-4.464c-9.505,0-17.858,7.272-17.858,17.569
		s8.354,17.57,17.858,17.57c5.328,0,8.568-1.873,10.729-4.465v13.682c-0.36-0.432-0.72-0.72-1.152-0.864
		c-0.432-0.144-0.864-0.288-1.296-0.288c-1.008,0-4.177,1.152-8.28,1.152c-15.41,0-27.363-11.161-27.363-26.787
		S351.885,6.22,367.295,6.22c2.088,0,3.744,0.288,5.112,0.576c1.368,0.288,2.376,0.576,3.168,0.576c1.152,0,1.8-0.648,2.448-1.152
		V19.901z"/>
	<path fill="#FFFFFF" d="M411.221,28.542v-18.29c0-1.296-0.792-2.232-1.8-2.88h13.105c-1.009,0.648-1.801,1.584-1.801,2.88V55.76
		c0,1.296,0.792,2.232,1.801,2.88h-13.105c1.008-0.648,1.8-1.584,1.8-2.88V37.039h-16.129V55.76c0,1.296,0.792,2.232,1.8,2.88
		h-13.105c1.009-0.648,1.801-1.584,1.801-2.88V10.252c0-1.296-0.792-2.232-1.801-2.88h13.105c-1.008,0.648-1.8,1.584-1.8,2.88v18.29
		H411.221z"/>
	<path fill="#FFFFFF" d="M442.634,7.372l10.801,29.883h0.144l11.089-29.883h10.585c-1.152,0.936-1.368,2.304-1.368,3.312
		c0,1.44,0.648,5.688,0.937,7.489l5.328,36.147c0.36,2.232,1.008,3.528,1.729,4.32h-12.313c0.937-0.792,1.296-1.656,1.296-2.808
		c0-1.152-0.359-3.528-0.647-5.688l-3.097-24.05h-0.144l-13.466,33.987h-0.144l-13.105-33.987h-0.144l-3.168,23.33
		c-0.505,3.528-0.864,5.544-0.864,6.841c0,0.864,0.432,1.8,1.08,2.376h-11.593c0.72-0.792,1.367-2.088,1.728-4.32l5.329-36.147
		c0.287-1.8,0.936-6.049,0.936-7.489c0-1.008-0.216-2.376-1.368-3.312H442.634z"/>
	<path fill="#FFFFFF" d="M497.958,47.696l-1.08,2.808c-0.72,1.872-1.656,4.464-1.656,5.761c0,1.008,0.504,1.8,1.008,2.376h-12.961
		c1.08-1.08,2.088-2.664,2.664-4.249l14.617-38.883c0.721-1.872,1.656-4.464,1.656-5.76c0-1.008-0.504-1.8-1.008-2.376h10.44
		l18.218,47.02c0.576,1.584,1.584,3.168,2.664,4.249h-13.177c0.504-0.576,1.008-1.368,1.008-2.376c0-1.296-0.936-3.889-1.656-5.761
		l-1.08-2.808H497.958z M514.735,39.199l-7.129-20.81h-0.144l-6.408,20.81H514.735z"/>
	<path fill="#FFFFFF" d="M546.578,24.798h-0.144V55.76c0,1.296,0.792,2.232,1.8,2.88H535.13c1.008-0.648,1.8-1.584,1.8-2.88V10.252
		c0-1.296-0.792-2.232-1.8-2.88h11.665l19.226,32.907h0.144V10.252c0-1.296-0.792-2.232-1.8-2.88h13.104
		c-1.008,0.648-1.8,1.584-1.8,2.88V55.76c0,1.296,0.792,2.232,1.8,2.88h-10.944L546.578,24.798z"/>
</g>
</svg>
