<?xml version="1.0" encoding="utf-8"?>
<!-- Generator: Adobe Illustrator 16.2.1, SVG Export Plug-In . SVG Version: 6.00 Build 0)  -->
<!DOCTYPE svg PUBLIC "-//W3C//DTD SVG 1.1//EN" "http://www.w3.org/Graphics/SVG/1.1/DTD/svg11.dtd">
<svg version="1.1" id="Layer_1" xmlns="http://www.w3.org/2000/svg" xmlns:xlink="http://www.w3.org/1999/xlink" x="0px" y="0px"
	 width="57.245px" height="77.418px" viewBox="0 0 57.245 77.418" enable-background="new 0 0 57.245 77.418" xml:space="preserve">
<path fill="#FFFFFF" d="M49.175,45.968V1c0-0.553-0.447-1-1-1H32.583c-0.553,0-1.227,0.387-1.504,0.864L0.504,53.308
	C0.226,53.785,0,54.619,0,55.172v7.797c0,0.553,0.448,1,1,1h29.14c0.553,0,1,0.447,1,1v11.449c0,0.553,0.447,1,1,1h16.035
	c0.553,0,1-0.447,1-1V64.969c0-0.553,0.447-1,1-1h6.07c0.552,0,1-0.447,1-1V47.968c0-0.553-0.448-1-1-1h-6.07
	C49.622,46.968,49.175,46.521,49.175,45.968z M30.14,46.968h-6.567c-0.552,0-0.783-0.392-0.515-0.875l7.598-13.705
	c0.268-0.483,0.484-0.428,0.484,0.125v13.455C31.14,46.521,30.692,46.968,30.14,46.968z"/>
</svg>
