<?xml version="1.0" encoding="utf-8"?>
<!-- Generator: Adobe Illustrator 16.2.1, SVG Export Plug-In . SVG Version: 6.00 Build 0)  -->
<!DOCTYPE svg PUBLIC "-//W3C//DTD SVG 1.1//EN" "http://www.w3.org/Graphics/SVG/1.1/DTD/svg11.dtd">
<svg version="1.1" id="Layer_1" xmlns="http://www.w3.org/2000/svg" xmlns:xlink="http://www.w3.org/1999/xlink" x="0px" y="0px"
	 width="73px" height="73px" viewBox="0 0 73 73" enable-background="new 0 0 73 73" xml:space="preserve">
<g>
	<path fill="#FFFFFF" d="M53.172,30.508c-0.005-0.573-0.177-0.633-0.672-0.722c-0.058-0.011-0.114-0.016-0.167-0.016
		c-0.201,0-0.807,0-1.211,1.975l1.855,0.349C53.121,31.352,53.176,30.901,53.172,30.508z"/>
	<path fill="#FFFFFF" d="M49.024,43.293c-0.219,0-0.387,0.126-0.656,0.391c-0.012,0.014-0.03,0.058-0.031,0.075v4.642
		c0,1.331,0.325,1.441,0.688,1.441c0.809,0,1.219-1.139,1.219-3.386S49.89,43.293,49.024,43.293z"/>
	<path fill="#FFFFFF" d="M39.091,39.472l0.104,0.002c1.241,0,2.024-0.493,2.04-1.287c0.017-0.888-0.807-1.096-1.5-1.113
		c-0.157-0.004-0.511,0.004-0.835,0.014l-0.256,0.006c-0.261,0.007-0.461,0.014-0.626,0.007c-0.394-0.009-0.678-0.029-1.131-0.116
		h-0.004c-0.021,0-0.044,0.007-0.052,0.011c-0.191,0.175-0.272,0.379-0.278,0.72C36.532,38.741,37.528,39.43,39.091,39.472z"/>
	<path fill="#FFFFFF" d="M38.766,32.066c0.479,0,0.88-0.133,0.917-1.76c0.023-0.968-0.107-1.607-0.389-1.9
		c-0.141-0.147-0.333-0.222-0.589-0.228c-0.445,0-0.884,0.137-0.922,1.739c-0.023,1.019,0.096,1.629,0.376,1.922
		C38.3,31.987,38.498,32.061,38.766,32.066z"/>
	<path fill="#FFFFFF" d="M71,0H2C0.896,0,0,0.895,0,2v69c0,1.104,0.896,2,2,2h69c1.104,0,2-0.896,2-2V2C73,0.895,72.104,0,71,0z
		 M43.462,24.955c1.303-0.15,2.946-0.424,3.91-0.65c0.133-0.03,0.27,0.01,0.355,0.104c0.068,0.074,0.102,0.176,0.093,0.284
		l-0.91,9.634c-0.142,1.528-0.013,1.55,0.607,1.653c0.228,0.04,0.373,0.197,0.354,0.382c-0.014,0.171-0.177,0.296-0.388,0.296
		l-0.039-0.001l-3.492-0.331c-0.191-0.015-0.366-0.173-0.404-0.368l-0.028-0.121c-0.024-0.094-0.044-0.258-0.031-0.382l0.747-7.869
		c0.083-0.89,0.057-1.212-0.122-1.497c-0.139-0.243-0.313-0.351-0.668-0.412c-0.213-0.037-0.361-0.186-0.361-0.361
		C43.085,25.132,43.243,24.981,43.462,24.955z M34.899,30.112c0.019-0.936,0.652-1.785,1.739-2.331
		c0.581-0.302,1.085-0.429,1.893-0.473l0.001-0.048c0.038-1.635,0.901-2.691,2.199-2.691h0.055c0.452,0.011,0.867,0.178,1.171,0.471
		c0.31,0.299,0.475,0.7,0.464,1.129c-0.019,0.806-0.626,1.437-1.385,1.437c-0.435-0.011-0.759-0.178-1.122-0.576
		c-0.294-0.323-0.344-0.338-0.42-0.34c-0.078,0-0.24,0-0.273,0.62l0.082,0.002c0.696,0.037,1.551,0.363,2.231,0.851
		c0.673,0.504,1.049,1.214,1.033,1.95c-0.03,1.59-1.688,2.836-3.773,2.836l-0.139-0.002c-0.633-0.017-1.123-0.111-1.748-0.337
		c-0.178,0.162-0.212,0.251-0.215,0.374c-0.009,0.411,0.102,0.729,1.569,0.768c0.247,0.01,0.6-0.002,1.051-0.025h0.048
		c0.382-0.008,0.767-0.014,1.026-0.009c1.823,0.049,3.121,1.302,3.088,2.979c-0.04,2.126-2.219,3.729-5.067,3.729
		c-0.067,0-0.135-0.001-0.201-0.003c-2.31-0.061-3.729-0.88-3.704-2.14c0.013-0.65,0.444-1.215,1.253-1.643
		c-0.845-0.409-1.278-1.07-1.261-1.928c0.02-0.956,0.531-1.745,1.605-2.47C35.294,31.766,34.88,31.034,34.899,30.112z M20.492,24.58
		c1.104-0.117,2.019,0.654,2.136,1.74c0.053,0.502-0.098,0.998-0.424,1.396c-0.325,0.4-0.783,0.65-1.289,0.703
		c-0.068,0.008-0.138,0.011-0.205,0.011c-0.993,0-1.821-0.746-1.928-1.734C18.671,25.641,19.438,24.692,20.492,24.58z
		 M18.564,29.882c1.241-0.432,2.795-1.067,3.692-1.511c0.219-0.107,0.493,0.043,0.519,0.286l0.622,5.869
		c0.149,1.424,0.278,1.424,0.754,1.424c0.092,0,0.194-0.004,0.307-0.012c0.884-0.09,0.998-0.102,0.904-1.653l-0.15-2.574
		c-0.054-0.902-0.129-1.22-0.351-1.477c-0.169-0.203-0.362-0.285-0.713-0.303c-0.158-0.007-0.361-0.083-0.408-0.274
		c-0.051-0.179,0.079-0.365,0.302-0.429c1.206-0.347,2.296-0.736,3.762-1.345c0.045-0.02,0.094-0.029,0.143-0.029
		c0.191,0,0.349,0.151,0.359,0.345l0.043,0.731c0.846-0.869,1.574-1.236,2.531-1.293c0.804-0.048,1.488,0.198,1.857,0.66
		c0.317,0.364,0.458,0.841,0.514,1.755l0.239,4.065c0.057,1.197,0.157,1.203,0.642,1.233c0.216,0.016,0.39,0.189,0.396,0.396
		c0.004,0.105-0.034,0.206-0.107,0.282c-0.075,0.078-0.182,0.124-0.292,0.125l-0.32,0.004c-1.261,0.015-2.542,0.057-3.809,0.125
		c0,0,0,0-0.001,0c-0.246,0-0.413-0.125-0.425-0.311c-0.011-0.175,0.124-0.321,0.342-0.372c0.201-0.05,0.242-0.127,0.271-0.216
		c0.052-0.162,0.06-0.289,0.013-1.07l-0.176-2.967c-0.07-1.228-0.117-1.473-0.242-1.678c-0.072-0.132-0.264-0.229-0.447-0.229
		l-0.036,0.001c-0.261,0.015-0.572,0.283-0.868,0.571c-0.007,0.009-0.021,0.043-0.021,0.057l0.265,4.332
		c0.056,1.196,0.159,1.209,0.437,1.243c0.218,0.027,0.367,0.155,0.38,0.327c0.006,0.079-0.021,0.159-0.076,0.225
		c-0.072,0.08-0.184,0.13-0.31,0.138c-5.143,0.324-8.799,0.99-9.479,1.12c-0.03,0.006-0.063,0.01-0.1,0.01
		c-0.228,0-0.346-0.147-0.359-0.285c-0.019-0.182,0.118-0.336,0.342-0.383c0.636-0.13,0.779-0.335,0.611-1.925l-0.271-2.563
		c-0.096-0.887-0.187-1.201-0.423-1.464c-0.174-0.19-0.373-0.262-0.733-0.262c-0.218,0-0.388-0.112-0.423-0.28
		C18.232,30.127,18.354,29.955,18.564,29.882z M16.38,38.598c-0.797,0.246-2.043,0.454-3.419,0.571
		c-0.431,0.039-0.593,0.057-0.72,0.095c-0.191,0.061-0.197,0.106-0.203,0.15c-0.032,0.265-0.158,0.356-0.258,0.387l-0.077,0.013
		h-0.009c-0.155,0-0.295-0.116-0.354-0.295l-1.483-4.31c-0.042-0.124-0.037-0.244,0.012-0.341c0.039-0.076,0.104-0.131,0.181-0.155
		l0.076-0.012c0,0,0.001,0,0.002,0c0.206,0,0.335,0.163,0.37,0.214c0.643,0.921,1.528,1.732,2.633,2.412
		c0.629,0.394,1.176,0.577,1.723,0.577c0.432,0,0.854-0.112,1.21-0.223c0.471-0.145,0.797-0.338,0.97-0.576
		c0.171-0.236,0.199-0.529,0.086-0.896c-0.228-0.742-0.962-1.092-2.535-1.205l-1.647-0.117c-2.263-0.179-3.401-0.818-3.809-2.138
		c-0.618-2.008,0.7-4.071,3.066-4.8c0.642-0.198,1.168-0.277,2.448-0.369c0.354-0.02,0.55-0.062,0.651-0.093
		c0.058-0.018,0.074-0.029,0.077-0.032c-0.001,0,0.001-0.009,0.002-0.033c0.025-0.287,0.171-0.373,0.256-0.399l0.069-0.012
		c0.001,0,0.002,0,0.003,0c0.17,0,0.308,0.115,0.37,0.291l1.217,3.405c0.042,0.122,0.039,0.246-0.01,0.342
		c-0.037,0.074-0.104,0.131-0.183,0.155l-0.074,0.012c0,0-0.001,0-0.002,0c-0.201,0-0.333-0.155-0.368-0.203
		c-1.054-1.424-2.307-2.207-3.527-2.207c-0.28,0-0.558,0.041-0.822,0.123c-0.882,0.272-1.184,0.689-0.979,1.35
		c0.115,0.375,0.384,0.675,0.719,0.801c0.396,0.163,1.186,0.301,2.067,0.361l1.557,0.095c2.015,0.146,3.154,0.868,3.589,2.271
		c0.303,0.982,0.172,2.014-0.366,2.903C18.354,37.595,17.463,38.265,16.38,38.598z M28.584,50.244c-0.006,0.228-0.151,0.4-0.34,0.4
		c-0.22,0-0.316-0.216-0.353-0.297c-0.01-0.024-0.014-0.032-0.071-0.032c-0.14,0-0.478,0.059-1.506,0.262
		c-0.361,0.062-1.097,0.131-1.545,0.131c-3.44,0-6.135-2.529-6.135-5.759c0-3.177,2.599-5.665,5.915-5.665
		c0.597,0,1.392,0.105,2.181,0.289c0.447,0.105,0.624,0.136,0.791,0.136c0.088,0,0.095-0.01,0.11-0.037
		c0.068-0.113,0.18-0.263,0.36-0.263c0.186,0,0.331,0.165,0.345,0.392l0.233,3.882c0.007,0.133-0.03,0.247-0.105,0.325
		c-0.056,0.062-0.135,0.098-0.221,0.098c-0.193,0-0.32-0.172-0.369-0.318c-0.331-1.008-0.754-1.797-1.371-2.561
		c-0.645-0.798-1.272-0.962-2.018-0.962c-1.371,0-2.037,1.563-2.037,4.778c0,1.879,0.268,3.125,0.868,4.041
		c0.291,0.434,0.772,0.628,1.562,0.628c0.721,0,1.346-0.219,2.05-1.288c0.504-0.751,0.819-1.461,1.091-2.454
		c0.044-0.166,0.175-0.335,0.365-0.335c0.082,0,0.16,0.033,0.22,0.095c0.073,0.074,0.114,0.191,0.111,0.319L28.584,50.244z
		 M34.317,50.487h-4.79c-0.237,0-0.409-0.141-0.409-0.335c0-0.184,0.165-0.328,0.393-0.344c0.652-0.046,0.771-0.054,0.771-1.591
		v-6.46c0-0.895-0.056-1.212-0.261-1.479c-0.16-0.23-0.343-0.32-0.701-0.349c-0.217-0.016-0.38-0.15-0.396-0.328
		s0.126-0.343,0.339-0.392c1.271-0.268,2.884-0.693,3.834-1.013c0.237-0.08,0.481,0.1,0.481,0.346v9.674
		c0,1.535,0.131,1.545,0.76,1.591c0.225,0.016,0.389,0.16,0.389,0.344C34.727,50.346,34.555,50.487,34.317,50.487z M44.269,49.598
		c-0.656,0.12-1.141,0.257-1.755,0.452l-1.837,0.583c-0.037,0.012-0.076,0.019-0.115,0.019c-0.2,0-0.362-0.165-0.362-0.368V49.53
		c-0.278,0.24-0.445,0.361-0.639,0.49c-0.651,0.433-1.394,0.671-2.091,0.671c-0.683,0-1.377-0.312-1.729-0.777
		c-0.295-0.404-0.399-0.872-0.399-1.79v-3.506c0-1.432-0.208-1.525-0.812-1.587c-0.229-0.024-0.382-0.164-0.382-0.347
		c0-0.188,0.167-0.33,0.396-0.34c0.821-0.034,2.525-0.225,3.646-0.406l0.056-0.006h0.001c0.225,0,0.392,0.169,0.392,0.385v5.539
		c0,0.505,0.036,0.746,0.139,0.925c0.082,0.155,0.312,0.265,0.547,0.265c0.276,0,0.53-0.127,0.85-0.424
		c0.009-0.01,0.025-0.052,0.026-0.068v-3.936c0-1.432-0.209-1.525-0.814-1.587c-0.225-0.024-0.381-0.167-0.381-0.347
		c0-0.188,0.167-0.33,0.396-0.34c0.821-0.034,2.526-0.225,3.649-0.406l0.054-0.006h0.001c0.225,0,0.392,0.169,0.392,0.385v5.052
		c0,1.26,0.222,1.423,0.768,1.518c0.217,0.038,0.362,0.18,0.362,0.354C44.626,49.411,44.479,49.558,44.269,49.598z M49.071,50.691
		c-0.809,0-1.091-0.062-2.521-0.547c-0.261-0.093-0.293-0.097-0.389-0.097c-0.188,0-0.316,0.055-0.421,0.334
		c-0.055,0.149-0.179,0.31-0.365,0.31c-0.191,0-0.335-0.175-0.335-0.407v-8.526c0-0.892-0.057-1.21-0.262-1.479
		c-0.158-0.227-0.344-0.32-0.688-0.349c-0.173-0.014-0.363-0.113-0.397-0.306c-0.035-0.186,0.106-0.364,0.329-0.414
		c1.277-0.268,2.96-0.711,3.832-1.011c0.249-0.08,0.482,0.099,0.482,0.344v4.042c0.651-0.455,1.32-0.677,2.039-0.677
		c1.925,0,3.322,1.661,3.322,3.95C53.698,48.614,51.709,50.691,49.071,50.691z M54.506,36.568c-0.726,0.617-1.627,0.943-2.606,0.943
		c-0.265,0-0.535-0.024-0.804-0.072c-2.473-0.445-4.012-2.592-3.58-4.994c0.387-2.146,2.247-3.703,4.423-3.703
		c0.278,0,0.56,0.025,0.835,0.075c1.345,0.241,2.439,1.023,3.002,2.146c0.342,0.68,0.447,1.237,0.402,2.127l-0.008,0.132
		c-0.012,0.198-0.177,0.348-0.383,0.348c-0.022,0-0.047-0.002-0.072-0.007l-4.717-0.84c-0.118,1.465,0.492,2.269,1.914,2.524
		c0.994,0.179,1.637-0.019,2.371-0.729c0.146-0.142,0.359-0.183,0.495-0.09c0.152,0.106,0.178,0.323,0.062,0.517
		C55.376,35.708,55.052,36.103,54.506,36.568z M60.9,33.217l0.935,0.62c1.551,1.044,2.094,2.04,1.759,3.23
		c-0.373,1.333-1.575,2.161-3.137,2.161c-0.428,0-0.867-0.062-1.309-0.187c-0.76-0.213-1.946-0.862-3.094-1.694
		c-0.15-0.109-0.229-0.319-0.188-0.501l0.626-2.761c0.046-0.196,0.186-0.327,0.349-0.327l0.062,0.007
		c0.193,0.054,0.279,0.24,0.301,0.386c0.328,2.219,1.197,3.682,2.386,4.015c0.662,0.186,1.017,0.092,1.137-0.336
		c0.111-0.403,0.114-0.77-0.936-1.514l-0.666-0.481c-1.824-1.304-2.427-2.335-2.082-3.562c0.334-1.192,1.468-1.934,2.96-1.934
		c0.428,0,0.867,0.063,1.308,0.188c0.794,0.222,1.562,0.573,2.492,1.139c0.165,0.1,0.254,0.311,0.212,0.501l-0.481,2.229
		c-0.04,0.197-0.18,0.33-0.346,0.33l-0.065-0.008c-0.189-0.049-0.276-0.237-0.297-0.385c-0.217-1.485-0.941-2.646-1.804-2.889
		c-0.166-0.046-0.329-0.07-0.471-0.07c-0.326,0-0.517,0.114-0.584,0.35C59.83,32.211,60.136,32.7,60.9,33.217z"/>
</g>
</svg>
