<?xml version="1.0" encoding="utf-8"?>
<!-- Generator: Adobe Illustrator 16.2.1, SVG Export Plug-In . SVG Version: 6.00 Build 0)  -->
<!DOCTYPE svg PUBLIC "-//W3C//DTD SVG 1.1//EN" "http://www.w3.org/Graphics/SVG/1.1/DTD/svg11.dtd">
<svg version="1.1" id="Layer_1" xmlns="http://www.w3.org/2000/svg" xmlns:xlink="http://www.w3.org/1999/xlink" x="0px" y="0px"
	 width="80.494px" height="80.496px" viewBox="0 0 80.494 80.496" enable-background="new 0 0 80.494 80.496" xml:space="preserve">
<g>
	<g>
		<g>
			<path fill="#FFFFFF" d="M40.247,75.456c-19.413,0-35.207-15.794-35.207-35.208S20.834,5.04,40.247,5.04
				s35.207,15.794,35.207,35.208S59.66,75.456,40.247,75.456z M40.247,7.04C21.937,7.04,7.04,21.938,7.04,40.248
				s14.896,33.208,33.207,33.208s33.207-14.897,33.207-33.208S58.558,7.04,40.247,7.04z"/>
		</g>
		<g>
			<path fill="#FFFFFF" d="M40.247,70.416c-16.634,0-30.167-13.533-30.167-30.168S23.613,10.08,40.247,10.08
				c16.635,0,30.167,13.533,30.167,30.168S56.882,70.416,40.247,70.416z M40.247,12.08c-15.531,0-28.167,12.636-28.167,28.168
				s12.636,28.168,28.167,28.168S68.414,55.78,68.414,40.248S55.778,12.08,40.247,12.08z"/>
		</g>
		<g>
			<path fill="#FFFFFF" d="M40.247,65.376c-13.855,0-25.127-11.272-25.127-25.128S26.392,15.12,40.247,15.12
				c13.855,0,25.127,11.272,25.127,25.128S54.103,65.376,40.247,65.376z M40.247,17.12c-12.752,0-23.127,10.375-23.127,23.128
				s10.375,23.128,23.127,23.128c12.752,0,23.127-10.375,23.127-23.128S52.999,17.12,40.247,17.12z"/>
		</g>
		<g>
			<path fill="#FFFFFF" d="M40.247,80.496C18.055,80.496,0,62.44,0,40.248S18.055,0,40.247,0s40.247,18.056,40.247,40.248
				S62.439,80.496,40.247,80.496z M40.247,2C19.158,2,2,19.158,2,40.248s17.158,38.248,38.247,38.248
				c21.09,0,38.247-17.158,38.247-38.248S61.337,2,40.247,2z"/>
		</g>
	</g>
	<g>
		<path fill="#FFFFFF" d="M40.247,21.16c-10.542,0-19.087,8.548-19.087,19.088s8.545,19.088,19.087,19.088
			c10.541,0,19.087-8.548,19.087-19.088S50.788,21.16,40.247,21.16z M40.247,49.067c-4.871,0-8.819-3.949-8.819-8.819
			s3.948-8.819,8.819-8.819c4.871,0,8.818,3.949,8.818,8.819S45.118,49.067,40.247,49.067z"/>
	</g>
</g>
</svg>
