<?xml version="1.0" encoding="utf-8"?>
<!-- Generator: Adobe Illustrator 16.2.1, SVG Export Plug-In . SVG Version: 6.00 Build 0)  -->
<!DOCTYPE svg PUBLIC "-//W3C//DTD SVG 1.1//EN" "http://www.w3.org/Graphics/SVG/1.1/DTD/svg11.dtd">
<svg version="1.1" id="Layer_1" xmlns="http://www.w3.org/2000/svg" xmlns:xlink="http://www.w3.org/1999/xlink" x="0px" y="0px"
	 width="61.25px" height="71.833px" viewBox="0 0 61.25 71.833" enable-background="new 0 0 61.25 71.833" xml:space="preserve">
<g>
	<g>
		<g>
			<g>
				<path fill="#FFFFFF" d="M33.413,71.406c-15.026,0-27.25-12.225-27.25-27.251s12.224-27.251,27.25-27.251
					c15.024,0,27.249,12.225,27.249,27.251S48.438,71.406,33.413,71.406z M33.413,18.278c-14.269,0-25.876,11.608-25.876,25.877
					s11.607,25.876,25.876,25.876c14.267,0,25.876-11.607,25.876-25.876S47.68,18.278,33.413,18.278z"/>
			</g>
		</g>
		<g>
			<g>
				<path fill="#FFFFFF" d="M27.912,71.406c-15.025,0-27.25-12.225-27.25-27.251s12.225-27.251,27.25-27.251
					c15.027,0,27.25,12.225,27.25,27.251S42.939,71.406,27.912,71.406z M27.912,18.278c-14.269,0-25.876,11.608-25.876,25.877
					s11.607,25.876,25.876,25.876c14.268,0,25.877-11.607,25.877-25.876S42.18,18.278,27.912,18.278z"/>
			</g>
		</g>
	</g>
	<g>
		<g>
			<path fill="#FFFFFF" d="M16.052,13.108l-4.74,2.715l-0.483-0.846l1.88-1.078L9.215,7.803L7.335,8.88L6.851,8.035L11.59,5.32
				l0.485,0.846l-1.881,1.077l3.492,6.097l1.88-1.078L16.052,13.108z"/>
			<path fill="#FFFFFF" d="M11.227,16.134l-0.711-1.242l1.88-1.078L9.13,8.116L7.25,9.193L6.539,7.95l5.136-2.942l0.712,1.243
				l-1.88,1.077l3.265,5.699l1.88-1.077l0.713,1.243L11.227,16.134z M11.14,15.062l0.257,0.448l4.343-2.487l-0.258-0.449
				l-1.88,1.078L9.883,7.158l1.88-1.077l-0.258-0.449L7.163,8.12L7.42,8.568L9.3,7.491l3.721,6.493L11.14,15.062z"/>
		</g>
		<g>
			<path fill="#FFFFFF" d="M21.56,4.27c-0.623-0.759-1.324-1.028-2.115-0.809c-0.951,0.264-1.42,0.927-1.186,1.768
				c0.117,0.42,0.363,0.685,0.724,0.783c0.373,0.096,0.932,0.141,1.688,0.13c0.675-0.015,1.036-0.009,1.562,0.111
				c0.775,0.156,1.234,0.562,1.522,1.453c0.509,1.828-0.357,3.068-2.1,3.552c-1.668,0.465-3.142-0.097-3.939-1.671l0.903-0.678
				c0.691,1.191,1.61,1.628,2.748,1.312c1.086-0.303,1.628-1.038,1.342-2.063c-0.1-0.358-0.323-0.59-0.529-0.705
				c-0.11-0.062-0.267-0.1-0.484-0.118c-0.428-0.055-0.671-0.066-1.343-0.039c-0.646,0.021-0.967,0.016-1.529-0.093
				c-0.792-0.167-1.302-0.61-1.64-1.635c-0.196-0.704-0.123-1.35,0.223-1.926c0.343-0.588,0.923-0.988,1.75-1.219
				c1.396-0.389,2.534,0.16,3.222,1.1L21.56,4.27z"/>
			<path fill="#FFFFFF" d="M20.556,11.645c-1.325,0-2.406-0.694-3.045-1.954l-0.087-0.172l1.263-0.947l0.129,0.224
				c0.643,1.103,1.45,1.495,2.488,1.205c0.489-0.136,0.855-0.367,1.058-0.668c0.205-0.305,0.248-0.679,0.126-1.113
				c-0.099-0.354-0.327-0.515-0.42-0.567c-0.079-0.044-0.207-0.073-0.393-0.089c-0.41-0.052-0.651-0.064-1.314-0.039
				c-0.695,0.02-1.031,0.009-1.582-0.097c-0.923-0.193-1.464-0.729-1.813-1.788c-0.217-0.776-0.133-1.485,0.243-2.115
				c0.373-0.639,0.99-1.071,1.886-1.322c1.361-0.372,2.654,0.072,3.469,1.187l0.121,0.165l-1.147,1.049l-0.153-0.187
				c-0.569-0.693-1.178-0.929-1.877-0.733c-0.456,0.126-0.786,0.351-0.952,0.646c-0.137,0.241-0.162,0.523-0.073,0.839
				c0.095,0.342,0.278,0.547,0.563,0.624c0.316,0.081,0.793,0.124,1.411,0.124l0.211-0.002c0.641-0.016,1.02-0.021,1.616,0.116
				c0.876,0.177,1.383,0.657,1.69,1.606c0.268,0.965,0.19,1.793-0.229,2.472c-0.396,0.639-1.097,1.113-2.026,1.372
				C21.32,11.589,20.93,11.645,20.556,11.645z M18.009,9.652c0.741,1.31,2.049,1.814,3.584,1.386
				c0.818-0.227,1.427-0.632,1.761-1.172c0.35-0.564,0.41-1.27,0.18-2.098c-0.252-0.781-0.631-1.146-1.348-1.29
				c-0.472-0.106-0.819-0.119-1.511-0.106l-0.22,0.001c-0.665,0-1.166-0.045-1.529-0.138c-0.444-0.123-0.75-0.448-0.888-0.945
				c-0.12-0.43-0.079-0.841,0.116-1.187c0.229-0.404,0.653-0.702,1.229-0.862c0.803-0.225,1.551,0.014,2.194,0.703l0.488-0.446
				c-0.705-0.843-1.746-1.163-2.85-0.854c-0.775,0.216-1.303,0.58-1.614,1.113c-0.312,0.52-0.378,1.107-0.199,1.749
				c0.292,0.886,0.717,1.314,1.466,1.472c0.517,0.101,0.828,0.111,1.476,0.088c0.701-0.024,0.961-0.011,1.378,0.041
				c0.248,0.021,0.432,0.068,0.569,0.147c0.302,0.169,0.534,0.476,0.638,0.842c0.155,0.562,0.091,1.077-0.188,1.491
				c-0.264,0.394-0.718,0.688-1.313,0.854c-1.168,0.321-2.146-0.086-2.873-1.198L18.009,9.652z"/>
		</g>
		<g>
			<path fill="#FFFFFF" d="M32.067,3.276c-0.411-0.893-1.021-1.332-1.843-1.319c-0.987,0.015-1.608,0.537-1.595,1.41
				c0.006,0.437,0.178,0.754,0.502,0.941c0.336,0.188,0.865,0.373,1.6,0.554c0.657,0.157,1.005,0.254,1.483,0.503
				c0.712,0.35,1.052,0.857,1.105,1.793c0.029,1.898-1.124,2.879-2.933,2.907c-1.732,0.025-3.018-0.892-3.39-2.618l1.046-0.427
				c0.367,1.329,1.146,1.984,2.326,1.967c1.13-0.017,1.84-0.593,1.823-1.657c-0.005-0.372-0.164-0.652-0.333-0.817
				c-0.091-0.088-0.234-0.162-0.439-0.236c-0.401-0.161-0.633-0.234-1.29-0.379c-0.631-0.144-0.94-0.229-1.457-0.478
				c-0.724-0.361-1.104-0.92-1.173-1.997c-0.011-0.731,0.224-1.338,0.704-1.807c0.48-0.482,1.144-0.724,2.004-0.737
				c1.449-0.021,2.412,0.798,2.84,1.882L32.067,3.276z"/>
			<path fill="#FFFFFF" d="M30.316,10.294c-1.841,0-3.164-1.047-3.542-2.8l-0.04-0.188l1.462-0.597l0.068,0.248
				c0.334,1.211,1.008,1.799,2.06,1.799c0.551-0.008,0.964-0.139,1.236-0.378c0.275-0.243,0.411-0.595,0.404-1.047
				c-0.006-0.365-0.187-0.58-0.265-0.656c-0.062-0.06-0.179-0.121-0.357-0.186c-0.394-0.158-0.617-0.229-1.261-0.37
				c-0.634-0.145-0.968-0.235-1.508-0.494c-0.844-0.422-1.231-1.075-1.302-2.189c-0.012-0.81,0.248-1.474,0.772-1.985
				c0.516-0.517,1.243-0.788,2.16-0.803h0.059c1.397,0,2.489,0.739,2.998,2.027l0.075,0.191L31.96,3.59l-0.101-0.219
				c-0.368-0.798-0.893-1.187-1.601-1.187c-0.912,0.014-1.411,0.442-1.4,1.178c0.006,0.354,0.132,0.6,0.388,0.748
				c0.319,0.177,0.839,0.355,1.54,0.527c0.669,0.161,1.039,0.266,1.534,0.523c0.803,0.393,1.172,0.987,1.229,1.982
				c0.029,1.944-1.151,3.119-3.159,3.149L30.316,10.294z M27.267,7.584c0.382,1.435,1.483,2.252,3.05,2.252l0.067-0.001
				c1.772-0.026,2.733-0.977,2.708-2.674c-0.048-0.82-0.321-1.27-0.978-1.591c-0.458-0.239-0.789-0.332-1.437-0.486
				c-0.741-0.183-1.299-0.376-1.657-0.575c-0.399-0.232-0.612-0.625-0.62-1.139c-0.015-0.981,0.7-1.627,1.82-1.644h0.001
				c0.859,0,1.502,0.416,1.946,1.237l0.586-0.308c-0.464-0.988-1.361-1.55-2.49-1.55c-0.856,0.013-1.46,0.232-1.896,0.67
				c-0.434,0.424-0.647,0.975-0.637,1.642c0.059,0.932,0.361,1.454,1.045,1.796c0.498,0.239,0.796,0.32,1.406,0.459
				c0.674,0.147,0.911,0.224,1.324,0.39c0.24,0.087,0.401,0.175,0.514,0.285c0.251,0.244,0.397,0.601,0.403,0.978
				c0.009,0.583-0.185,1.066-0.56,1.397c-0.355,0.312-0.87,0.483-1.489,0.492c-0.001,0-0.001,0-0.001,0
				c-1.239,0-2.058-0.635-2.475-1.889L27.267,7.584z"/>
		</g>
		<g>
			<path fill="#FFFFFF" d="M38.354,1.553l1.095,0.281l-1.478,5.746c-0.304,1.191,0.219,2.187,1.475,2.508
				c1.252,0.322,2.193-0.297,2.498-1.488l1.477-5.746l1.092,0.28l-1.457,5.672c-0.25,0.968-0.729,1.652-1.455,2.061
				c-0.727,0.409-1.528,0.494-2.423,0.264c-0.895-0.229-1.557-0.69-1.996-1.397c-0.439-0.709-0.531-1.539-0.283-2.508L38.354,1.553z
				"/>
			<path fill="#FFFFFF" d="M40.115,11.485c-0.317,0-0.652-0.045-0.996-0.132c-0.948-0.243-1.665-0.747-2.134-1.5
				c-0.468-0.755-0.571-1.658-0.31-2.684l1.514-5.895l1.538,0.395l-1.535,5.969c-0.284,1.112,0.206,1.946,1.31,2.229
				c1.08,0.276,1.941-0.23,2.219-1.322l1.535-5.97l1.535,0.395l-1.514,5.894c-0.268,1.027-0.793,1.769-1.566,2.203
				C41.219,11.344,40.682,11.485,40.115,11.485z M38.519,1.833l-1.399,5.45c-0.234,0.913-0.15,1.676,0.256,2.329
				c0.408,0.657,1.017,1.082,1.859,1.297c0.842,0.217,1.578,0.139,2.252-0.241c0.67-0.377,1.111-1.005,1.348-1.919l1.398-5.45
				l-0.648-0.165l-1.42,5.524c-0.338,1.328-1.439,1.993-2.776,1.653c-1.34-0.344-1.983-1.438-1.639-2.787L39.17,2L38.519,1.833z"/>
		</g>
		<g>
			<path fill="#FFFFFF" d="M49.664,5.28l4.938,2.83l-0.533,0.935l-3.961-2.269l-1.281,2.236l3.402,1.949l-0.537,0.935l-3.402-1.949
				l-1.574,2.748l4.072,2.331l-0.537,0.936l-5.049-2.894L49.664,5.28z"/>
			<path fill="#FFFFFF" d="M50.334,16.273l-5.445-3.121l4.691-8.184l5.334,3.057l-0.76,1.332l-3.963-2.27l-1.053,1.84l3.404,1.949
				l-0.768,1.332l-3.402-1.95l-1.344,2.351l4.07,2.332L50.334,16.273z M45.516,12.982l4.65,2.667l0.309-0.538l-4.072-2.331
				l1.803-3.146l3.402,1.95l0.309-0.538l-3.402-1.949l1.51-2.634l3.959,2.268l0.305-0.536l-4.539-2.603L45.516,12.982z"/>
		</g>
	</g>
	<g>
		<g>
			<path fill="#FFFFFF" d="M31.321,31.883h1.137v25.651h-3.005V36.501l-4.728,2.748v-3.372L31.321,31.883z"/>
		</g>
	</g>
</g>
</svg>
