<?xml version="1.0" encoding="utf-8"?>
<!-- Generator: Adobe Illustrator 16.2.1, SVG Export Plug-In . SVG Version: 6.00 Build 0)  -->
<!DOCTYPE svg PUBLIC "-//W3C//DTD SVG 1.1//EN" "http://www.w3.org/Graphics/SVG/1.1/DTD/svg11.dtd">
<svg version="1.1" id="Layer_1" xmlns="http://www.w3.org/2000/svg" xmlns:xlink="http://www.w3.org/1999/xlink" x="0px" y="0px"
	 width="222.521px" height="102.154px" viewBox="-47.672 -256.344 222.521 102.154"
	 enable-background="new -47.672 -256.344 222.521 102.154" xml:space="preserve">
<path fill="#FFFFFF" d="M55.923-155.591c0,0.306-0.343,0.53-0.815,0.53H36.146c-0.472,0-0.815-0.224-0.815-0.53
	c0-0.335,0.402-0.537,0.799-0.566c3.342-0.231,3.804-1.095,3.804-7.087v-25.566c0-3.74-0.258-5.102-1.2-6.336
	c-0.761-1.09-1.698-1.562-3.348-1.689c-0.38-0.032-0.801-0.224-0.833-0.575c-0.029-0.303,0.283-0.601,0.723-0.698
	c5.095-1.077,11.509-2.774,15.254-4.032c0.439-0.149,0.854,0.149,0.853,0.612v38.284c0,5.987,0.454,6.848,3.744,7.087
	C55.587-156.124,55.923-155.887,55.923-155.591z M118.947-187.412c-3.047,0-5.909,1.093-8.754,3.342
	c-0.049,0.037-0.082,0.052-0.089,0.061c-0.007-0.015-0.017-0.049-0.017-0.111v-17.407c0-0.46-0.4-0.761-0.852-0.608
	c-3.463,1.191-10.162,2.96-15.254,4.027c-0.452,0.098-0.748,0.406-0.69,0.718c0.063,0.338,0.486,0.524,0.856,0.555
	c1.609,0.133,2.53,0.604,3.29,1.689c0.942,1.233,1.199,2.596,1.199,6.336v33.742c0,0.462,0.228,0.813,0.531,0.813
	c0.322,0,0.576-0.383,0.696-0.709c0.474-1.272,1.217-1.838,2.415-1.838c0.528,0,0.745,0.05,1.793,0.426
	c5.542,1.883,6.631,2.122,9.715,2.122c9.984,0,17.513-7.876,17.513-18.321C131.298-181.174,126.104-187.412,118.947-187.412z
	 M113.601-156.02c-2.53,0-3.515-1.823-3.515-6.499v-18.375c0-0.273,0.167-0.673,0.355-0.858c1.178-1.155,2.029-1.78,3.16-1.78
	c3.996,0,5.626,3.86,5.626,13.321C119.227-160.53,117.439-156.02,113.601-156.02z M94.178-159.817
	c-2.908-0.497-3.704-1.957-3.704-6.79v-19.992c0-0.455-0.36-0.792-0.842-0.715c-4.445,0.724-11.234,1.48-14.533,1.62
	c-0.465,0.022-0.801,0.253-0.801,0.55c0,0.289,0.325,0.529,0.79,0.578c3.238,0.326,3.938,1.583,3.938,7.073v15.578
	c0,0.277-0.169,0.676-0.361,0.855c-1.422,1.324-2.586,1.889-3.897,1.889c-1.228,0-2.403-0.592-2.859-1.447
	c-0.485-0.843-0.657-1.906-0.657-4.058v-21.924c0-0.455-0.364-0.792-0.842-0.715c-4.442,0.724-11.231,1.48-14.531,1.62
	c-0.465,0.022-0.803,0.253-0.803,0.55c0,0.289,0.325,0.529,0.79,0.578c3.238,0.326,3.938,1.583,3.938,7.073v13.876
	c0,3.438,0.37,5.165,1.415,6.601c1.251,1.652,3.745,2.76,6.208,2.76c2.608,0,5.391-0.896,7.835-2.523
	c1.011-0.673,1.821-1.291,3.689-2.979c0.028-0.025,0.051-0.041,0.066-0.051c0.004,0.021,0.009,0.049,0.009,0.087v4.652
	c0,0.462,0.4,0.767,0.854,0.624l7.27-2.308c2.393-0.762,4.406-1.332,7.038-1.816c0.381-0.069,0.766-0.309,0.766-0.631
	C94.952-159.531,94.565-159.747,94.178-159.817z M161.896-228.801c0.647,0,1.348,0.105,2.082,0.312
	c3.713,1.042,6.813,5.898,7.712,12.085c0.052,0.356,0.239,0.773,0.537,0.853c0.292,0.081,0.606-0.213,0.697-0.664l1.907-8.828
	c0.084-0.413-0.127-0.906-0.483-1.126c-3.617-2.196-6.598-3.561-9.661-4.421c-1.673-0.47-3.34-0.708-4.957-0.708
	c-5.527,0-9.725,2.71-10.949,7.07c-1.253,4.469,1.049,8.304,7.942,13.231l2.632,1.903c3.693,2.616,4.704,4.346,4.003,6.852
	c-0.428,1.521-1.45,2.257-3.125,2.257c-0.682,0-1.474-0.125-2.357-0.373c-5.018-1.407-8.667-7.436-10.012-16.544
	c-0.053-0.353-0.241-0.77-0.535-0.854c-0.293-0.082-0.609,0.21-0.706,0.661l-2.482,10.924c-0.088,0.41,0.103,0.921,0.435,1.16
	c4.475,3.243,9.07,5.766,11.996,6.584c1.678,0.471,3.347,0.709,4.959,0.709c5.808,0,10.27-3.053,11.65-7.971
	c1.213-4.324-0.835-7.995-6.642-11.901l-3.701-2.461c-3.35-2.262-4.663-4.482-4.016-6.789
	C159.277-228.46,160.745-228.801,161.896-228.801z M141.396-230.396c-2.114-4.214-6.235-7.153-11.307-8.064
	c-1.049-0.189-2.114-0.284-3.165-0.284c-8.228,0-15.258,5.888-16.717,14c-0.783,4.355,0.165,8.677,2.669,12.167
	c2.505,3.493,6.362,5.86,10.856,6.668c1.02,0.184,2.042,0.276,3.044,0.276c3.68,0,7.064-1.226,9.789-3.547
	c2.099-1.783,3.34-3.296,5.109-6.223c0.628-1.035-0.367-1.895-1.277-1.021c-2.378,2.308-4.396,3.651-7.255,3.651
	c-0.789,0-1.609-0.078-2.505-0.239c-6.193-1.118-8.884-4.835-8.226-11.362c0.021-0.197,0.202-0.333,0.403-0.297l19.183,3.419
	c0.054,0.01,0.108,0.015,0.16,0.015c0.393,0,0.693-0.264,0.714-0.624l0.031-0.514C143.072-225.754,142.675-227.853,141.396-230.396z
	 M131.809-225.703c-0.033,0.201-0.221,0.345-0.435,0.305l-8.263-1.485c-0.099-0.018-0.186-0.073-0.243-0.154
	c-0.055-0.082-0.075-0.18-0.055-0.276c1.17-6.108,2.974-8.952,5.673-8.952c0.255,0,0.523,0.025,0.8,0.075
	c2.043,0.367,3.295,0.74,3.313,3.631C132.619-230.949,132.406-229.092,131.809-225.703z M-8.56-219.257
	c-1.628-5.27-5.787-7.87-13.488-8.426l-6.17-0.377c-3.562-0.244-6.78-0.81-8.403-1.478c-1.552-0.584-2.795-1.958-3.325-3.68
	c-0.942-3.06,0.496-5.133,4.398-6.338c1.131-0.348,2.306-0.525,3.493-0.525c5.092,0,10.274,3.214,14.597,9.054
	c0.258,0.349,0.617,0.552,0.888,0.474c0.104-0.033,0.191-0.108,0.246-0.216c0.091-0.18,0.088-0.449-0.008-0.721l-4.812-13.479
	c-0.153-0.43-0.499-0.689-0.768-0.606c-0.349,0.106-0.429,0.653-0.448,0.882c-0.041,0.539-0.246,0.762-0.875,0.956
	c-0.452,0.139-1.295,0.322-2.754,0.401c-4.996,0.357-7.04,0.664-9.51,1.426c-8.93,2.75-13.921,10.488-11.61,17.999
	c1.499,4.859,5.795,7.22,14.366,7.896l6.521,0.463c6.61,0.483,9.721,2.026,10.741,5.332c1.017,3.304-0.523,5.535-4.706,6.825
	c-1.471,0.454-3.219,0.917-5.024,0.917c-2.324,0-4.622-0.765-7.234-2.406c-4.47-2.745-8.056-6.033-10.658-9.77
	c-0.202-0.29-0.575-0.579-0.879-0.49c-0.106,0.032-0.19,0.106-0.246,0.214c-0.092,0.182-0.092,0.451,0,0.723l5.869,17.061
	c0.127,0.375,0.387,0.629,0.646,0.629c0.04,0,0.08-0.007,0.115-0.019c0.24-0.071,0.394-0.362,0.457-0.871
	c0.079-0.63,0.449-0.971,1.361-1.253c0.581-0.176,1.23-0.243,3.017-0.41c5.375-0.454,10.245-1.265,13.361-2.227
	C-10.876-203.924-6.216-211.644-8.56-219.257z M33.716-237.564c1.086-0.064,2.19,0.48,2.625,1.286
	c0.609,1.001,0.791,2.18,1.077,7.003l0.692,11.736c0.193,3.232,0.154,3.778-0.088,4.537c-0.252,0.757-0.73,1.157-1.651,1.378
	c-0.461,0.11-0.75,0.362-0.737,0.644c0.014,0.286,0.331,0.487,0.767,0.487l0.078-0.002c5.055-0.271,10.136-0.437,15.106-0.495
	l0.288-0.003c0.356-0.004,0.684-0.008,0.979-0.01c0.225-0.002,0.439-0.092,0.589-0.25c0.139-0.146,0.212-0.335,0.204-0.533
	c-0.01-0.416-0.37-0.768-0.821-0.801c-2.659-0.17-3.059-0.854-3.282-5.63l-0.953-16.086c-0.203-3.414-0.708-5.177-1.856-6.498
	c-1.293-1.623-3.767-2.487-6.678-2.314c-4.027,0.238-6.932,1.916-10.713,6.196c-0.015,0.015-0.025,0.028-0.036,0.038
	c-0.001-0.014-0.004-0.031-0.005-0.053l-0.278-4.713c-0.028-0.463-0.458-0.734-0.888-0.554c-5.797,2.41-10.133,3.96-14.968,5.353
	c-0.454,0.13-0.725,0.439-0.643,0.741c0.084,0.305,0.502,0.461,0.882,0.48c1.62,0.079,2.568,0.49,3.385,1.472
	c1.015,1.179,1.354,2.538,1.58,6.319l0.603,10.186c0.367,6.195-0.078,6.955-4.331,7.389c-0.524,0.032-0.926,0.046-1.267,0.046
	c-2.698,0-3.192-0.831-3.774-6.353L7.143-239.79c-0.05-0.463-0.485-0.711-0.911-0.5c-3.545,1.755-9.732,4.285-14.708,6.017
	c-0.371,0.129-0.711,0.429-0.644,0.753c0.066,0.321,0.499,0.469,0.899,0.469c1.656,0,2.635,0.364,3.491,1.302
	c1.075,1.191,1.477,2.532,1.869,6.243l1.073,10.146c0.631,5.961,0.309,7.798-3.048,8.482c-0.458,0.093-0.756,0.36-0.726,0.653
	c0.029,0.248,0.276,0.407,0.632,0.407l0,0c0.077,0,0.159-0.007,0.244-0.024c2.701-0.516,17.209-3.154,37.616-4.443
	c0.283-0.018,0.534-0.12,0.668-0.275c0.08-0.091,0.118-0.196,0.112-0.302c-0.017-0.322-0.417-0.516-0.805-0.564
	c-1.852-0.232-2.215-1.077-2.43-5.66l-1.048-17.143c-0.015-0.269,0.137-0.664,0.324-0.846
	C31.229-236.515,32.468-237.49,33.716-237.564z M91.663-252.463c1.637,0.286,2.53,0.842,3.183,1.993
	c0.82,1.321,0.95,2.699,0.601,6.422l-2.955,31.145c-0.042,0.372,0.021,0.921,0.104,1.249c0.045,0.173,0.083,0.345,0.119,0.515
	c0.086,0.421,0.48,0.781,0.895,0.817l13.781,1.3c0.042,0.004,0.083,0.005,0.123,0.005c0.419,0,0.715-0.184,0.738-0.458
	c0.024-0.294-0.28-0.557-0.741-0.637c-3.252-0.543-3.623-1.442-3.064-7.407l3.59-38.116c0.02-0.202-0.035-0.388-0.156-0.518
	c-0.147-0.165-0.387-0.227-0.631-0.168c-3.816,0.896-10.362,1.984-15.567,2.586c-0.446,0.054-0.787,0.323-0.79,0.629
	C90.891-252.77,91.281-252.529,91.663-252.463z M78.5-219.057c-1.09-0.034-2.757,0.004-4.188,0.035
	c-1.749,0.09-3.25,0.131-4.218,0.101c-5.213-0.136-7.041-1.146-6.986-3.86c0.018-0.778,0.312-1.318,1.125-2.066
	c0.172-0.156,0.559-0.224,0.787-0.143c2.4,0.863,4.267,1.225,6.665,1.287l0.14,0.001c0.133,0.003,0.266,0.005,0.399,0.005
	c7.809,0,14.017-4.586,14.134-10.438c0.053-2.657-1.314-5.228-3.754-7.059c-2.573-1.841-5.79-3.072-8.396-3.215l-0.748-0.019
	c-0.001,0-0.133-0.002-0.297-0.009c-0.046-0.002-0.077-0.027-0.077-0.045l0.004-0.262c0.077-3.27,0.972-3.72,1.921-3.72
	c0.658,0.02,1.034,0.289,2.232,1.604c1.294,1.419,2.371,1.985,3.85,2.02c2.606,0,4.618-2.108,4.685-4.903
	c0.069-3.068-2.377-5.438-5.685-5.516c-0.074-0.004-0.137-0.004-0.204-0.004c-4.666,0-7.768,3.876-7.905,9.873l-0.012,0.572
	c-0.006,0.201-0.185,0.373-0.401,0.382c-3.268,0.152-5.236,0.624-7.521,1.804c-4.029,2.021-6.378,5.131-6.445,8.53
	c-0.075,3.72,1.788,6.578,5.391,8.263c0.078,0.037,0.107,0.072,0.109,0.073c-0.002,0.009-0.026,0.044-0.098,0.088
	c-4.707,2.894-6.932,6-7.006,9.776c-0.071,3.579,2.069,6.193,6.19,7.559c-3.977,1.633-6.105,3.906-6.156,6.571
	c-0.092,4.49,5.226,7.424,13.879,7.655c0.261,0.005,0.518,0.008,0.775,0.008c10.825,0,19.104-6.007,19.259-13.976
	C90.072-214.262,85.257-218.876,78.5-219.057z M67.426-234.905c0.149-6.361,1.889-7.664,4.457-7.666
	c1.233,0.028,2.179,0.402,2.891,1.146c1.286,1.342,1.86,3.989,1.765,8.095c-0.153,6.475-1.747,7.74-4.444,7.74
	c-1.286-0.027-2.254-0.4-2.963-1.141C67.866-228.054,67.323-230.651,67.426-234.905z M73.792-196.273
	c-0.14,0-0.281-0.003-0.42-0.006c-6.663-0.179-10.91-3.229-10.819-7.769c0.032-1.564,0.452-2.598,1.408-3.456
	c0.146-0.128,0.432-0.219,0.696-0.219c0.056,0,0.111,0.004,0.163,0.014c1.707,0.331,2.807,0.411,4.355,0.449
	c0.649,0.025,1.473,0,2.458-0.028l0.979-0.023c1.785-0.054,2.828-0.069,3.35-0.057c4.39,0.119,6.774,1.974,6.711,5.225
	C82.603-198.523,79.198-196.273,73.792-196.273z M-0.236-241.572c0.24,0,0.486-0.013,0.726-0.039
	c1.789-0.188,3.412-1.073,4.567-2.493c1.153-1.417,1.684-3.17,1.498-4.935c-0.381-3.604-3.245-6.219-6.809-6.219
	c-0.252,0-0.506,0.013-0.759,0.041c-3.737,0.398-6.455,3.76-6.062,7.493C-6.702-244.216-3.76-241.572-0.236-241.572z M31.182-172.67
	c-0.316,0-0.578,0.373-0.676,0.738c-1.095,4.02-2.377,6.899-4.422,9.938c-3.155,4.795-6.084,5.456-8.778,5.456
	c-2.302,0-5.163-0.324-6.846-2.845c-2.468-3.766-3.569-8.832-3.569-16.428c0-13.261,2.899-19.708,8.863-19.708
	c3.173,0,5.849,0.699,8.6,4.108c2.507,3.1,4.224,6.3,5.564,10.374c0.118,0.357,0.397,0.718,0.701,0.718
	c0.112,0,0.219-0.049,0.303-0.137c0.139-0.149,0.209-0.407,0.189-0.69l-0.92-15.357c-0.025-0.457-0.269-0.801-0.566-0.801
	c-0.235,0-0.486,0.221-0.744,0.651c-0.235,0.387-0.54,0.532-1.124,0.532c-0.729,0-1.472-0.125-3.308-0.552
	c-3.061-0.719-6.14-1.129-8.449-1.129c-12.68,0-22.614,9.496-22.614,21.621c0,12.332,10.316,21.993,23.485,21.993
	c1.751,0,4.583-0.266,5.953-0.504c4.245-0.836,5.501-1.052,6.116-1.052c0.513,0,0.835,0.192,1.014,0.601
	c0.21,0.488,0.417,0.705,0.664,0.705c0.303,0,0.534-0.338,0.551-0.809l0.523-16.598c0.009-0.286-0.072-0.542-0.214-0.69
	C31.396-172.625,31.292-172.67,31.182-172.67z"/>
</svg>
