<?xml version="1.0" encoding="utf-8"?>
<!-- Generator: Adobe Illustrator 16.2.1, SVG Export Plug-In . SVG Version: 6.00 Build 0)  -->
<!DOCTYPE svg PUBLIC "-//W3C//DTD SVG 1.1//EN" "http://www.w3.org/Graphics/SVG/1.1/DTD/svg11.dtd">
<svg version="1.1" id="Layer_1" xmlns="http://www.w3.org/2000/svg" xmlns:xlink="http://www.w3.org/1999/xlink" x="0px" y="0px"
	 width="120px" height="57.082px" viewBox="0 0 120 57.082" enable-background="new 0 0 120 57.082" xml:space="preserve">
<g>
	<path fill="#FFFFFF" d="M56.036,51.553c-1.472-0.014-2.072-0.736-2.072-2.479V29.559c-3.124,1.272-5.946,2.312-8.396,3.1
		l1.531,1.24c0.82,0.646,0.975,0.963,0.975,1.987v13.188c0,1.743-0.601,2.468-2.072,2.479v0.631h10.035L56.036,51.553L56.036,51.553
		z"/>
	<path fill="#FFFFFF" d="M41.793,8.991c-0.034,0.054-0.099,0.082-0.161,0.064c-0.062-0.016-0.106-0.07-0.109-0.134
		c-0.042-0.844-0.067-1.384-0.1-2.052l-0.031-0.651c-2.85,1.946-5.492,3.453-8.062,4.597c0.517,0.354,0.879,0.599,1.34,0.911
		l0.55,0.373c0.93,0.607,1.05,1.132,1.092,2.108c0.094,2.127,0.15,3.393,0.23,5.188l0.062,1.393c0.083,1.88-0.503,2.694-2.022,2.795
		l0.032,0.707c4.144-0.209,6.26-0.323,10.201-0.564l-0.038-0.718c-0.001,0-0.002,0-0.002,0c-1.381,0-2.01-0.766-2.101-2.562
		c-0.169-3.308-0.253-4.957-0.42-8.265c-0.104-2.099,0.152-3.519,1.739-3.62c1.724-0.102,2.125,1.211,2.241,3.382
		c0.25,4.671,0.378,7.028,0.636,11.65c3.336-0.211,5.03-0.328,8.218-0.559l-0.004-0.035c-0.015-0.244-0.025-0.419-0.042-0.669
		c-0.085,0.005-0.166,0.008-0.244,0.008c-1.33,0-1.945-0.76-2.054-2.541l-0.012-0.193c-0.2-3.249-0.303-4.937-0.503-8.248
		c-0.233-3.87-2.03-5.63-5.49-5.406C44.604,6.09,42.985,7.084,41.793,8.991z"/>
	<path fill="#FFFFFF" d="M29.749,51.641c1.717,0.805,3.709,1.23,5.758,1.23c2.566,0,5.306-0.655,8.141-1.951v-7.127h-0.454
		c-0.824,4.824-3.85,8.059-7.557,8.059c-4.53,0-5.44-4.299-5.44-11.229c0-7.411,1.598-10.573,5.344-10.573
		c3.463,0,6.16,2.81,7.058,7.335h0.588v-6.443c-2.145-1.229-4.697-1.879-7.385-1.879c-3.333,0-6.37,1.104-8.783,3.188
		c-2.597,2.235-4.026,5.435-4.026,8.998C22.993,45.996,25.265,49.492,29.749,51.641z"/>
	<path fill="#FFFFFF" d="M94.113,15.397c0.033-0.022,0.074-0.03,0.113-0.021c3.734,0.862,5.569,1.274,9.193,2.07
		c0.807-4.382-1.262-7.797-5.296-8.72c-0.353-0.082-0.72-0.132-1.095-0.157c-2.074-0.129-4.273,0.637-5.739,1.998
		c-1.617,1.5-2.638,3.318-3.115,5.56c-0.478,2.231-0.256,4.306,0.658,6.166c1.133,2.296,3.086,3.862,5.503,4.411
		c2.635,0.601,5.295-0.086,7.561-1.95l0.104-0.514c0.044-0.228,0.086-0.433,0.138-0.678c-0.992,0.662-2.06,0.85-3.273,0.58
		c-3.471-0.776-5.541-4.494-4.814-8.647C94.059,15.454,94.079,15.418,94.113,15.397z M97.591,9.702
		c0.147,0.008,0.308,0.032,0.468,0.069c1.465,0.333,1.99,1.573,1.565,3.688c-0.256,1.281-0.761,1.733-1.854,1.666
		c-0.494-0.031-1.104-0.165-1.908-0.349c-0.35-0.08-0.596-0.137-0.858-0.199l-0.618-0.143c-0.076-0.018-0.127-0.095-0.111-0.173
		C94.948,11.008,95.973,9.602,97.591,9.702z"/>
	<path fill="#FFFFFF" d="M105.936,22.178c-0.084-0.021-0.172-0.041-0.271-0.062l-0.377,1.946c-0.208,1.082-0.393,2.041-0.665,3.425
		c2.081,1.439,4.133,2.369,6.272,2.833c0.731,0.158,1.455,0.242,2.146,0.242c3.337,0,5.741-1.849,6.277-4.822
		c0.535-2.973-0.853-4.286-4.145-6.577l-0.367-0.254c-2.139-1.481-3.431-2.375-3.145-3.932c0.191-1.032,1.023-1.673,2.178-1.673
		c0.24,0,0.494,0.028,0.751,0.083c1.978,0.429,3.119,1.943,4.063,5.389c0.109,0.023,0.201,0.044,0.289,0.064
		c0.089,0.019,0.174,0.039,0.274,0.06l0.781-4.417c-1.707-0.965-3.396-1.634-5.021-1.989c-0.808-0.174-1.586-0.264-2.313-0.264
		c-3.188,0-5.333,1.665-5.888,4.567c-0.524,2.785,0.81,4.256,3.996,6.501l0.225,0.157c2.062,1.448,3.309,2.322,2.941,4.278
		c-0.205,1.104-0.971,1.74-2.096,1.74c-0.248,0-0.513-0.029-0.787-0.092c-2.767-0.604-4.521-3.202-4.818-7.134L105.936,22.178z"/>
	<path fill="#FFFFFF" d="M32.27,24.727l-0.096-0.707c-0.104,0.01-0.206,0.015-0.301,0.015c-1.185,0-1.787-0.711-2.01-2.378
		c-0.773-5.748-1.159-8.648-1.873-14.184c-2.989,1.861-5.71,3.414-8.097,4.619c0.646,0.419,1.035,0.672,1.743,1.133
		c0.93,0.585,1.118,0.883,1.256,1.991c0.37,2.943,0.557,4.419,0.931,7.361c0.241,1.881-0.276,2.747-1.785,2.972l0.089,0.698
		C26.234,25.656,28.314,25.342,32.27,24.727z"/>
	<path fill="#FFFFFF" d="M11.708,29.316c5.719-1.416,8.567-5.408,7.434-10.423c-0.592-2.618-1.962-4.15-4.726-5.289
		c-0.833-0.343-2.054-0.509-3.6-0.72c-0.734-0.1-1.566-0.212-2.457-0.36c-2.378-0.391-3.715-1.453-4.087-3.247
		c-0.421-2.031,0.71-3.804,2.75-4.312c2.618-0.649,4.974,1.197,7.224,5.686l0.63-0.163c-0.602-2.744-0.915-4.176-1.507-6.933
		c-0.912-0.068-1.722-0.102-2.473-0.102c-1.481,0-2.731,0.132-3.818,0.403C2.079,5.1-0.758,9.167,0.176,13.75
		c0.356,1.747,1.214,3.186,2.481,4.16c1.495,1.146,3.157,1.462,4.917,1.797c0.206,0.039,0.412,0.078,0.619,0.119l0.699,0.136
		c3.207,0.621,5.144,0.994,5.729,3.626c0.509,2.287-0.555,4.047-2.776,4.594c-0.412,0.103-0.832,0.154-1.247,0.154
		c-2.982,0-5.824-2.646-8.006-7.454L2.265,20.96c-0.151,0.035-0.296,0.069-0.475,0.112c0.73,3.51,1.098,5.266,1.817,8.644
		C6.353,30.094,9.113,29.959,11.708,29.316z"/>
	<path fill="#FFFFFF" d="M24.302,0.968c-0.15,0-0.301,0.012-0.452,0.034c-1.732,0.262-2.913,1.93-2.687,3.798
		c0.205,1.686,1.492,2.909,3.06,2.909c0.15,0,0.303-0.012,0.455-0.034c1.713-0.255,2.913-1.963,2.677-3.808
		C27.139,2.188,25.854,0.968,24.302,0.968z"/>
	<path fill="#FFFFFF" d="M76.283,23.066c-0.016,0.152-0.026,0.275-0.039,0.404l-0.029,0.295c4.195,0.429,6.291,0.641,10.35,1.009
		l0.06-0.712c-1.515-0.149-2.074-0.986-1.92-2.877C85.375,12.852,85.705,8.649,86.363,0c-3.196,1.07-6.137,1.919-8.736,2.526
		l0.564,0.598c0.27,0.284,0.524,0.558,0.885,0.934c0.771,0.792,0.895,1.128,0.8,2.239c-0.479,5.667-0.729,8.566-1.229,14.307
		c-0.148,1.719-0.764,2.486-1.983,2.486C76.542,23.089,76.415,23.082,76.283,23.066z"/>
	<path fill="#FFFFFF" d="M76.876,52.184v-0.631c-1.476-0.016-2.104-0.762-2.104-2.479V35.948L74,36.312
		c-3.027,1.42-5.447,2.555-7.411,3.308l1.552,1.282c0.646,0.541,0.773,1.188,0.773,2.121v4.373c0,1.682-0.23,3.235-1.92,3.235
		c-1.686,0-2.021-1.237-2.021-3.235V35.953c-3.42,1.629-6.224,2.912-8.655,3.82l1.779,1.254c0.887,0.604,0.984,1.093,0.984,1.996
		v4.57c0,3.5,1.653,5.275,4.918,5.275c2.206,0,3.946-0.854,5.175-2.534c0.038-0.053,0.104-0.071,0.163-0.055
		c0.062,0.021,0.103,0.075,0.103,0.139v1.765H76.876L76.876,52.184z"/>
	<path fill="#FFFFFF" d="M89.904,36.032c-1.793,0-3.315,0.69-4.288,1.95c-0.038,0.049-0.104,0.067-0.163,0.049
		c-0.061-0.021-0.102-0.076-0.102-0.139v-8.336c-3.844,1.523-6.477,2.536-8.295,3.103l1.528,1.237
		c0.819,0.646,0.976,0.965,0.976,1.987v14.37c0,0.77-0.11,1.402-0.34,1.93h0.853c0.42,0,0.552-0.188,0.836-0.599l1.442-2.196
		c0.024-0.044,0.072-0.066,0.121-0.066c0.002,0,0.006,0,0.008,0c0.053,0.003,0.1,0.031,0.123,0.076
		c1.229,2.357,3.166,3.506,5.922,3.506c4.943,0,8.142-3.297,8.142-8.402C96.667,39.596,93.823,36.032,89.904,36.032z M87.803,52.05
		c-2.177,0-2.414-2.237-2.414-6.987s0.237-6.985,2.414-6.985c2.27,0,2.385,2.653,2.385,6.985
		C90.188,49.393,90.07,52.05,87.803,52.05z"/>
	<path fill="#FFFFFF" d="M58.373,25.788c0.033,0.052,0.028,0.119-0.01,0.167c-1.316,1.683-1.717,3.098-1.187,4.209
		c1.301,2.727,7.739,2.865,7.854,2.868c3.412-0.001,5.916-0.933,7.445-2.772c2.262-2.717,1.592-6.521,1.582-6.559
		c-0.395-1.949-1.938-3.039-1.953-3.049c-0.92-0.678-2.062-1.02-3.404-1.02c-1.713,0-3.149,0.572-3.164,0.578
		c-1.068,0.46-3.178,1.126-3.199,1.132c-0.396,0.109-0.755,0.163-1.076,0.163c-1.827,0.001-1.9-1.708-1.9-1.725
		c0.216-1.706,2.076-2.23,3.166-2.394c0.021-0.002,0.039-0.001,0.06,0.003c0.751,0.195,1.619,0.305,2.581,0.325h0.119
		c0.057,0.002,0.111,0.004,0.169,0.004c0.011-0.001,0.026,0,0.026-0.002h0.031c4.581,0,7.688-2.354,7.73-5.855
		c0.023-1.813-1.975-3.542-3.295-4.686c-0.623-0.54-1.034-0.896-1.129-1.152c-0.021-0.055-0.01-0.116,0.033-0.18
		c0.108-0.156,0.504-0.461,0.84-0.461c0.43,0.009,0.832,0.274,1.261,0.555c0.501,0.328,1.019,0.667,1.634,0.677l0,0
		c0.936,0,1.631-0.757,1.641-1.763c0.015-1.202-0.895-2.091-2.158-2.114l0,0c-1.2,0-2.389,1.35-3.176,2.244
		c-0.379,0.431-0.678,0.77-0.898,0.888c-0.046,0.022-0.1,0.034-0.174,0.034c-0.17,0-0.45-0.057-0.775-0.122
		C66.7,5.713,66.312,5.635,66.059,5.63c-0.107-0.003-0.217-0.004-0.32-0.004c-4.551,0-7.678,2.413-7.78,6.003
		c-0.018,0.63,0.267,1.446,0.847,2.427c0,0,0,0,0.001,0c0.336,0.571,0.7,1.079,0.966,1.45c0.008,0.01,0.013,0.023,0.018,0.035
		c0.002,0.005,0.228,0.579,1.084,1.13c0.042,0.027,0.067,0.074,0.067,0.125c-0.002,0.05-0.028,0.097-0.07,0.123
		c-5.646,3.428-3.809,6.65-3.728,6.785C57.254,23.945,57.996,25.171,58.373,25.788z M63.068,11.603
		c0.068-3.017,0.529-5.025,2.559-5.025h0.076c1.788,0.045,2.49,1.548,2.426,5.187c-0.062,3.475-0.804,4.893-2.559,4.893h-0.072
		C63.266,16.602,63.01,14.196,63.068,11.603z M59.55,26.692c0.014-0.039,0.041-0.071,0.077-0.088
		c0.037-0.018,0.079-0.019,0.117-0.004c0.01,0.004,0.99,0.389,2.347,0.389c0.743,0,1.466-0.114,2.142-0.34
		c0.064-0.027,1.817-0.736,3.356-0.736c1.366,0,2.147,0.579,2.267,1.675c0,0.088-0.006,1.825-1.265,3.087
		c-0.823,0.83-1.987,1.25-3.467,1.25c-0.156,0-3.835-0.022-5.267-1.987C59.234,29.079,59.132,27.988,59.55,26.692z"/>
</g>
</svg>
